<?xml version="1.0" encoding="UTF-8"?>
<svg version="1.1" xmlns="http://www.w3.org/2000/svg" width="160" height="160">
<path d="M0 0 C1.15956711 -0.00708481 2.31913422 -0.01416962 3.51383972 -0.02146912 C4.79233795 -0.0189917 6.07083618 -0.01651428 7.38807678 -0.01396179 C8.74309572 -0.01830722 10.0981122 -0.02348979 11.453125 -0.02944946 C15.13906842 -0.04286938 18.8249095 -0.04341481 22.5108726 -0.04088616 C25.58504967 -0.03981843 28.65920586 -0.04469477 31.73337847 -0.04949158 C38.98450464 -0.06059721 46.23557902 -0.06101832 53.48670959 -0.05497742 C60.97349566 -0.04893619 68.46009385 -0.0612499 75.94684786 -0.08254749 C82.3689748 -0.10014649 88.79104186 -0.10616753 95.21319205 -0.10290974 C99.05136917 -0.10109394 102.88941232 -0.10376241 106.72756767 -0.11762428 C110.33665421 -0.13017042 113.94544733 -0.12828938 117.55452919 -0.11521339 C119.51368087 -0.11170783 121.47284137 -0.12304935 123.43196106 -0.13478088 C125.17554146 -0.12425941 125.17554146 -0.12425941 126.9543457 -0.11352539 C128.47279036 -0.113777 128.47279036 -0.113777 130.02191067 -0.1140337 C132.54066467 0.26069641 132.54066467 0.26069641 134.38063908 1.53524494 C136.52047103 4.71808522 135.62909812 8.66405987 135.35707092 12.33882141 C135.30047806 13.26285767 135.24388519 14.18689392 135.18557739 15.13893127 C134.99140639 18.18134943 134.76985574 21.22072415 134.54066467 24.26069641 C134.46418701 25.28960999 134.38770935 26.31852356 134.30891418 27.37861633 C133.73912146 34.92606349 133.11411916 42.46857766 132.47816467 50.01069641 C132.10805702 54.40098286 131.74281661 58.79163519 131.38050842 63.18257141 C131.25397133 64.65461029 131.25397133 64.65461029 131.12487793 66.15638733 C130.90232811 68.85684711 130.70859515 71.55632069 130.54066467 74.26069641 C130.49575897 74.96998795 130.45085327 75.67927948 130.40458679 76.4100647 C130.16458507 83.90170361 131.68353084 91.23277099 132.94691467 98.58491516 C133.19431324 100.05970486 133.44092216 101.53462722 133.68678284 103.00967407 C134.3317273 106.87002508 134.98449812 110.72900377 135.6398468 114.58760071 C136.6899819 120.77231597 137.73270645 126.95824498 138.7666626 133.1456852 C139.12799986 135.29672772 139.49552793 137.44664861 139.86354065 139.59655762 C140.08624853 140.92165413 140.30871414 142.2467914 140.53089905 143.57197571 C140.72631287 144.721754 140.92172668 145.87153229 141.12306213 147.05615234 C141.53478279 150.21556078 141.83472487 153.08442011 141.54066467 156.26069641 C138.22659857 158.47007382 137.22060882 158.5095291 133.36659241 158.50361633 C132.31217453 158.50669296 131.25775665 158.50976959 130.17138672 158.51293945 C129.03383438 158.50575394 127.89628204 158.49856842 126.72425842 158.49116516 C125.55685623 158.49070694 124.38945404 158.49024872 123.18667603 158.48977661 C120.71782922 158.48675411 118.24898433 158.4788679 115.78016663 158.46650696 C111.98997789 158.4482533 108.20003339 158.44599725 104.4098053 158.44624329 C102.01462088 158.44132804 99.61943813 158.4354997 97.22425842 158.42866516 C96.08468185 158.42755234 94.94510529 158.42643951 93.77099609 158.42529297 C92.71973038 158.41891312 91.66846466 158.41253326 90.58534241 158.40596008 C89.65729294 158.40214828 88.72924347 158.39833649 87.77307129 158.39440918 C85.54066467 158.26069641 85.54066467 158.26069641 83.54066467 157.26069641 C80.57439756 157.16144631 77.6320988 157.12088826 74.66566467 157.12788391 C73.78539612 157.12692719 72.90512756 157.12597046 71.9981842 157.12498474 C70.13539051 157.12430365 68.27259444 157.12615298 66.4098053 157.13032532 C63.55232939 157.13567457 60.69501067 157.13037792 57.83753967 157.12397766 C56.03024766 157.12463846 54.22295574 157.12591964 52.41566467 157.12788391 C51.55731018 157.12585968 50.69895569 157.12383545 49.81459045 157.12174988 C45.54265665 157.01426963 45.54265665 157.01426963 41.54066467 158.26069641 C39.86156728 158.36632933 38.17835823 158.4094514 36.49598694 158.42182922 C35.44472122 158.43143677 34.39345551 158.44104431 33.31033325 158.45094299 C31.6009684 158.45731781 31.6009684 158.45731781 29.85707092 158.46382141 C28.69062546 158.46952148 27.52417999 158.47522156 26.3223877 158.48109436 C23.85178029 158.49055289 21.38116023 158.49708172 18.91053772 158.50093079 C15.12231081 158.5106473 11.33462377 158.54166791 7.54652405 158.57319641 C5.15004291 158.5797251 2.75355787 158.5849761 0.35707092 158.58882141 C-0.78048141 158.60116821 -1.91803375 158.61351501 -3.09005737 158.62623596 C-4.14447525 158.62323486 -5.19889313 158.62023376 -6.28526306 158.61714172 C-7.21410812 158.62078735 -8.14295319 158.62443298 -9.09994507 158.62818909 C-11.45933533 158.26069641 -11.45933533 158.26069641 -13.28158569 156.914505 C-15.20629133 154.21181283 -14.41455032 152.02131937 -13.93589783 148.80757141 C-13.83717377 148.12136719 -13.73844971 147.43516296 -13.63673401 146.72816467 C-13.26770813 144.23482254 -12.86630645 141.74812716 -12.45933533 139.26069641 C-12.29719543 138.26110901 -12.13505554 137.26152161 -11.96800232 136.23164368 C-10.41935747 126.74257687 -8.82182572 117.26150881 -7.19468689 107.78559875 C-6.57357467 104.15893506 -5.964828 100.53036089 -5.35777283 96.90132141 C-5.16718292 95.81039185 -4.97659302 94.71946228 -4.78022766 93.59547424 C-2.76510592 81.43278769 -3.52484511 69.78588955 -4.58824158 57.55366516 C-4.70339256 56.17516435 -4.81787608 54.79660764 -4.93173218 53.41799927 C-5.41123328 47.62656035 -5.90286713 41.83617162 -6.39854431 36.0460968 C-6.70339283 32.47960822 -7.00057981 28.91254446 -7.29330254 25.34504128 C-7.45966507 23.34662759 -7.6348872 21.34895775 -7.81030273 19.35131836 C-8.77890748 7.53570367 -8.77890748 7.53570367 -7.45933533 2.26069641 C-4.82788436 -0.37075455 -3.67130361 0.00744793 0 0 Z " fill="#B9B9B9" transform="translate(16.459335327148438,0.7393035888671875)"/>
<path d="M0 0 C11.19573244 -0.02312269 22.39145924 -0.04091471 33.58721066 -0.05181217 C38.78528115 -0.05704116 43.98333536 -0.0641391 49.18139648 -0.07543945 C54.19342268 -0.08626776 59.20543318 -0.09227671 64.21747017 -0.09487724 C66.13412282 -0.09673159 68.05077457 -0.1003524 69.96742058 -0.10573006 C72.64228072 -0.11293975 75.31707514 -0.11399097 77.99194336 -0.11352539 C78.7925116 -0.11712067 79.59307983 -0.12071594 80.41790771 -0.12442017 C85.88594784 -0.11405216 85.88594784 -0.11405216 87 1 C89.08235372 1.01692352 91.16533339 0.96209116 93.24609375 0.87890625 C95.20373657 0.80627563 95.20373657 0.80627563 97.20092773 0.73217773 C98.24009842 0.69046951 98.24009842 0.69046951 99.30026245 0.6479187 C102.84559606 0.5062228 106.39148353 0.38107106 109.9375 0.2578125 C110.98417091 0.22121773 110.98417091 0.22121773 112.05198669 0.18388367 C120.03641764 -0.08479399 128.01273813 -0.09860817 136 0 C136.12369457 8.12746862 135.74705067 16.15705465 135.16015625 24.26171875 C135.07374374 25.4923555 134.98733124 26.72299225 134.89830017 27.99092102 C134.7160164 30.57521342 134.53187101 33.15937513 134.34594727 35.7434082 C134.06260435 39.68604802 133.78572569 43.62910287 133.50976562 47.57226562 C133.33110973 50.09377699 133.15208589 52.61526232 132.97265625 55.13671875 C132.8491555 56.89323006 132.8491555 56.89323006 132.72315979 58.68522644 C132.64315231 59.79030045 132.56314484 60.89537445 132.48071289 62.03393555 C132.37745445 63.47641914 132.37745445 63.47641914 132.27210999 64.94804382 C131.94278647 68.64170075 131.45995912 72.32032704 131 76 C89.42 76 47.84 76 5 76 C4.01 64.12 3.02 52.24 2 40 C1.16945662 30.33368669 1.16945662 30.33368669 0.33203125 20.66796875 C0.00526879 16.15773536 -0.0395776 11.66555879 -0.02075195 7.14575195 C-0.01925392 6.45589455 -0.01775589 5.76603714 -0.01621246 5.05527496 C-0.01233595 3.3701791 -0.00638225 1.68508823 0 0 Z " fill="#0C0C0C" transform="translate(12,5)"/>
<path d="M0 0 C1.15956711 -0.00708481 2.31913422 -0.01416962 3.51383972 -0.02146912 C4.79233795 -0.0189917 6.07083618 -0.01651428 7.38807678 -0.01396179 C8.74309572 -0.01830722 10.0981122 -0.02348979 11.453125 -0.02944946 C15.13906842 -0.04286938 18.8249095 -0.04341481 22.5108726 -0.04088616 C25.58504967 -0.03981843 28.65920586 -0.04469477 31.73337847 -0.04949158 C38.98450464 -0.06059721 46.23557902 -0.06101832 53.48670959 -0.05497742 C60.97349566 -0.04893619 68.46009385 -0.0612499 75.94684786 -0.08254749 C82.3689748 -0.10014649 88.79104186 -0.10616753 95.21319205 -0.10290974 C99.05136917 -0.10109394 102.88941232 -0.10376241 106.72756767 -0.11762428 C110.33665421 -0.13017042 113.94544733 -0.12828938 117.55452919 -0.11521339 C119.51368087 -0.11170783 121.47284137 -0.12304935 123.43196106 -0.13478088 C125.17554146 -0.12425941 125.17554146 -0.12425941 126.9543457 -0.11352539 C128.47279036 -0.113777 128.47279036 -0.113777 130.02191067 -0.1140337 C132.54066467 0.26069641 132.54066467 0.26069641 134.38063908 1.53524494 C136.52047103 4.71808522 135.62909812 8.66405987 135.35707092 12.33882141 C135.30047806 13.26285767 135.24388519 14.18689392 135.18557739 15.13893127 C134.99140639 18.18134943 134.76985574 21.22072415 134.54066467 24.26069641 C134.46418701 25.28960999 134.38770935 26.31852356 134.30891418 27.37861633 C133.73912146 34.92606349 133.11411916 42.46857766 132.47816467 50.01069641 C132.10805702 54.40098286 131.74281661 58.79163519 131.38050842 63.18257141 C131.25397133 64.65461029 131.25397133 64.65461029 131.12487793 66.15638733 C130.48549452 73.91478115 130.01357415 81.47997483 131.41566467 89.17866516 C131.59613342 90.20540344 131.77660217 91.23214172 131.96253967 92.28999329 C132.15332092 93.33220032 132.34410217 94.37440735 132.54066467 95.44819641 C134.82711462 108.0777426 134.82711462 108.0777426 134.54066467 113.26069641 C133.55066467 113.59069641 132.56066467 113.92069641 131.54066467 114.26069641 C130.33184371 116.26086107 130.33184371 116.26086107 129.54066467 118.26069641 C123.38832092 118.35835266 123.38832092 118.35835266 121.54066467 118.26069641 C120.54066467 117.26069641 120.54066467 117.26069641 120.44300842 115.41304016 C120.47556051 113.36225891 120.50811259 111.31147766 120.54066467 109.26069641 C94.22044636 108.37067829 67.93121473 108.12912698 41.5973053 108.19203186 C36.71449747 108.20252292 31.8316838 108.20688284 26.9488678 108.21186829 C17.47945234 108.22238548 8.0100614 108.23929889 -1.45933533 108.26069641 C-1.45933533 106.28069641 -1.45933533 104.30069641 -1.45933533 102.26069641 C-2.11933533 102.26069641 -2.77933533 102.26069641 -3.45933533 102.26069641 C-4.25886671 105.54765874 -4.55592469 106.97092833 -3.45933533 110.26069641 C-2.96433533 109.76569641 -2.96433533 109.76569641 -2.45933533 109.26069641 C-0.94005495 109.18889677 0.58233949 109.17677634 2.10316467 109.19819641 C3.34259827 109.21173157 3.34259827 109.21173157 4.60707092 109.22554016 C5.56419983 109.2429425 5.56419983 109.2429425 6.54066467 109.26069641 C6.63832092 115.41304016 6.63832092 115.41304016 6.54066467 117.26069641 C5.54066467 118.26069641 5.54066467 118.26069641 3.47425842 118.35835266 C2.23869202 118.34095032 2.23869202 118.34095032 0.97816467 118.32319641 C-0.26126892 118.30966125 -0.26126892 118.30966125 -1.52574158 118.29585266 C-2.48287048 118.27845032 -2.48287048 118.27845032 -3.45933533 118.26069641 C-3.95433533 115.78569641 -3.95433533 115.78569641 -4.45933533 113.26069641 C-5.94433533 113.75569641 -5.94433533 113.75569641 -7.45933533 114.26069641 C-7.01375258 106.42458598 -5.98163746 98.80356364 -4.47569275 91.10884094 C-2.44049882 79.98378459 -3.61572067 68.7405501 -4.58824158 57.55366516 C-4.70339256 56.17516435 -4.81787608 54.79660764 -4.93173218 53.41799927 C-5.41123328 47.62656035 -5.90286713 41.83617162 -6.39854431 36.0460968 C-6.70339283 32.47960822 -7.00057981 28.91254446 -7.29330254 25.34504128 C-7.45966507 23.34662759 -7.6348872 21.34895775 -7.81030273 19.35131836 C-8.77890748 7.53570367 -8.77890748 7.53570367 -7.45933533 2.26069641 C-4.82788436 -0.37075455 -3.67130361 0.00744793 0 0 Z M-4.45933533 4.26069641 C-4.51498393 12.27310637 -4.56889947 20.24126841 -3.87339783 28.22944641 C-3.81155304 28.99712341 -3.74970825 29.76480042 -3.68598938 30.55574036 C-3.49106626 32.95789458 -3.28788012 35.35925929 -3.08433533 37.76069641 C-2.95619016 39.32836062 -2.82858505 40.89606906 -2.70152283 42.46382141 C-1.66848054 55.06693733 -0.55480409 67.66280558 0.54066467 80.26069641 C42.12066467 80.26069641 83.70066467 80.26069641 126.54066467 80.26069641 C128.11538581 64.12467887 128.11538581 64.12467887 129.39222717 47.97163391 C129.45598541 47.05081024 129.51974365 46.12998657 129.58543396 45.18125916 C129.71611788 43.28156459 129.84542064 41.38177446 129.97328186 39.48188782 C130.16795508 36.60181111 130.36973806 33.72228634 130.57191467 30.84272766 C131.49126687 17.56550114 131.49126687 17.56550114 131.54066467 4.26069641 C122.84611197 4.15335625 114.16890751 4.21465433 105.47816467 4.51850891 C104.43058739 4.55492241 104.43058739 4.55492241 103.36184692 4.59207153 C99.82138549 4.71719046 96.28141245 4.8507997 92.74159241 4.99287415 C90.78394958 5.06550476 90.78394958 5.06550476 88.78675842 5.13960266 C87.6078302 5.18673401 86.42890198 5.23386536 85.21424866 5.28242493 C82.54066467 5.26069641 82.54066467 5.26069641 81.54066467 4.26069641 C78.86278494 4.16556698 76.21077598 4.13514362 73.53260803 4.14717102 C72.69365494 4.14702499 71.85470184 4.14687897 70.99032593 4.14672852 C68.20369423 4.14742792 65.41712851 4.15522156 62.63050842 4.16304016 C60.70379676 4.16490424 58.77708462 4.16632819 56.85037231 4.16732788 C51.7687907 4.17115382 46.68723748 4.18098475 41.60566711 4.19203186 C36.42449833 4.20224435 31.24332498 4.20682515 26.06214905 4.21186829 C15.88830842 4.22260695 5.7144889 4.23968428 -4.45933533 4.26069641 Z " fill="#727272" transform="translate(16.459335327148438,0.7393035888671875)"/>
<path d="M0 0 C1.35421764 0.01720422 2.70840241 0.03757796 4.0625 0.0625 C4.7225 0.0625 5.3825 0.0625 6.0625 0.0625 C29.39583333 0.0625 52.72916667 0.0625 76.0625 0.0625 C76.69285156 0.05089844 77.32320313 0.03929688 77.97265625 0.02734375 C80.0024742 0.00155659 82.03277394 0.03028213 84.0625 0.0625 C85.0625 1.0625 85.0625 1.0625 85.16015625 2.91015625 C85.12760417 4.9609375 85.09505208 7.01171875 85.0625 9.0625 C82.4225 9.3925 79.7825 9.7225 77.0625 10.0625 C77.5575 11.5475 77.5575 11.5475 78.0625 13.0625 C78.29563438 15.54638847 78.48189788 18.01096157 78.625 20.5 C78.66818359 21.14904297 78.71136719 21.79808594 78.75585938 22.46679688 C79.13343614 28.69381682 79.0625 34.7883592 79.0625 41.0625 C53.3225 41.0625 27.5825 41.0625 1.0625 41.0625 C1.0625 29.8125 1.0625 29.8125 1.5 25.4921875 C1.59023438 24.57695312 1.68046875 23.66171875 1.7734375 22.71875 C1.86882813 21.8009375 1.96421875 20.883125 2.0625 19.9375 C2.15789063 18.98101562 2.25328125 18.02453125 2.3515625 17.0390625 C2.5841625 14.71306246 2.82119679 12.38761041 3.0625 10.0625 C0.4225 9.7325 -2.2175 9.4025 -4.9375 9.0625 C-5.03515625 2.91015625 -5.03515625 2.91015625 -4.9375 1.0625 C-3.9375 0.0625 -3.9375 0.0625 0 0 Z " fill="#A0A0A0" transform="translate(39.9375,109.9375)"/>
<path d="M0 0 C0.66 0 1.32 0 2 0 C2 1.98 2 3.96 2 6 C2.78022018 5.98747192 3.56044037 5.97494385 4.36430359 5.96203613 C11.81882311 5.84263874 19.27336611 5.7248842 26.72793865 5.60884857 C30.55781654 5.54917929 34.38768338 5.48893586 38.2175293 5.42724609 C62.76661899 5.03256026 87.26498786 4.8748262 111.8125 5.5 C113.78840575 5.54841075 115.76431721 5.59658872 117.74023438 5.64453125 C122.49355935 5.76035492 127.24679728 5.87926743 132 6 C132 6.33 132 6.66 132 7 C125.41816638 7.8931507 119.57849492 7.95494281 113 7 C112.67 7.66 112.34 8.32 112 9 C111.505 8.505 111.505 8.505 111 8 C105.82264323 7.62947661 105.82264323 7.62947661 101 9 C101 8.34 101 7.68 101 7 C78.56 7 56.12 7 33 7 C32.67 7.66 32.34 8.32 32 9 C31.505 8.505 31.505 8.505 31 8 C28.32941149 7.85884839 25.67567762 7.95752893 23 8 C22.67 10.64 22.34 13.28 22 16 C24.97 16 27.94 16 31 16 C30.01 26.56 29.02 37.12 28 48 C53.74 48 79.48 48 106 48 C106.33 46.68 106.66 45.36 107 44 C107.042721 45.66611905 107.04063832 47.33382885 107 49 C104.97721704 51.02278296 100.97560551 50.41823222 98.1953125 50.55859375 C97.393284 50.60084579 96.59125549 50.64309784 95.7649231 50.68663025 C86.46891821 51.13373393 77.17916884 51.11005265 67.875 51.0625 C66.12630339 51.05746474 64.37760535 51.05290549 62.62890625 51.04882812 C58.41923411 51.03800641 54.20963387 51.02085884 50 51 C50 51.66 50 52.32 50 53 C42.45501767 53.02312851 34.91003899 53.04091769 27.36502934 53.05181217 C23.86191115 53.05703989 20.35881715 53.0641355 16.85571289 53.07543945 C12.83219159 53.08834206 8.80869586 53.09322912 4.78515625 53.09765625 C3.52163834 53.10281754 2.25812042 53.10797882 0.95631409 53.11329651 C-0.204814 53.11337204 -1.36594208 53.11344757 -2.56225586 53.11352539 C-4.1044706 53.11685631 -4.1044706 53.11685631 -5.67784119 53.12025452 C-8 53 -8 53 -9 52 C-10.28296941 38.53933739 -7.35457191 25.18967308 -5 12 C-3.68 11.67 -2.36 11.34 -1 11 C-0.67 12.65 -0.34 14.3 0 16 C4.455 15.505 4.455 15.505 9 15 C9.33 12.36 9.66 9.72 10 7 C7.03 7 4.06 7 1 7 C0.67 7.66 0.34 8.32 0 9 C-1.125 6.75 -1.125 6.75 -2 4 C-1.125 1.6875 -1.125 1.6875 0 0 Z " fill="#BBBBBB" transform="translate(13,103)"/>
<path d="M0 0 C1.25554687 -0.00128906 2.51109375 -0.00257812 3.8046875 -0.00390625 C4.46178711 -0.00181152 5.11888672 0.0002832 5.79589844 0.00244141 C7.80411335 0.00779016 9.81210459 0.00249559 11.8203125 -0.00390625 C13.70363281 -0.00197266 13.70363281 -0.00197266 15.625 0 C16.78644531 0.00112793 17.94789062 0.00225586 19.14453125 0.00341797 C21.8125 0.1328125 21.8125 0.1328125 22.8125 1.1328125 C22.85342937 3.46578683 22.85491723 5.79986475 22.8125 8.1328125 C21.1625 8.4628125 19.5125 8.7928125 17.8125 9.1328125 C18.84656673 10.39230299 18.84656673 10.39230299 21.09765625 10.23046875 C22.01417969 10.21886719 22.93070312 10.20726563 23.875 10.1953125 C24.79410156 10.18628906 25.71320313 10.17726563 26.66015625 10.16796875 C27.37042969 10.15636719 28.08070312 10.14476563 28.8125 10.1328125 C28.85504356 12.13235996 28.85330783 14.13322886 28.8125 16.1328125 C26.92364805 18.02166445 24.17198241 17.25291885 21.65925598 17.25723267 C20.7745311 17.25363739 19.88980621 17.25004211 18.97827148 17.24633789 C18.05153625 17.24648392 17.12480103 17.24662994 16.16998291 17.2467804 C13.09116313 17.24608088 10.01240303 17.23828671 6.93359375 17.23046875 C4.80509982 17.22860471 2.67660547 17.22718074 0.54811096 17.22618103 C-5.0661232 17.22235478 -10.68033168 17.21252358 -16.29455566 17.20147705 C-22.01863253 17.19126523 -27.74271353 17.1866839 -33.46679688 17.18164062 C-44.70704256 17.17090141 -55.94726915 17.1538237 -67.1875 17.1328125 C-67.41536458 15.08203125 -67.64322917 13.03125 -67.87109375 10.98046875 C-68.00636614 9.12141021 -68.00636614 9.12141021 -69.1875 8.1328125 C-69.22813832 6.46664135 -69.230221 4.79893155 -69.1875 3.1328125 C-68.5275 3.7928125 -67.8675 4.4528125 -67.1875 5.1328125 C-66.5275 3.8128125 -65.8675 2.4928125 -65.1875 1.1328125 C-59.9075 1.1328125 -54.6275 1.1328125 -49.1875 1.1328125 C-49.1875 3.1128125 -49.1875 5.0928125 -49.1875 7.1328125 C-49.043125 6.5140625 -48.89875 5.8953125 -48.75 5.2578125 C-48.1875 3.1328125 -48.1875 3.1328125 -47.1875 1.1328125 C-40.9175 1.1328125 -34.6475 1.1328125 -28.1875 1.1328125 C-28.1875 3.1128125 -28.1875 5.0928125 -28.1875 7.1328125 C-27.6925 7.6278125 -27.6925 7.6278125 -27.1875 8.1328125 C-27.1875 5.8228125 -27.1875 3.5128125 -27.1875 1.1328125 C-24.2175 1.1328125 -21.2475 1.1328125 -18.1875 1.1328125 C-18.1875 3.1128125 -18.1875 5.0928125 -18.1875 7.1328125 C-17.8575 7.1328125 -17.5275 7.1328125 -17.1875 7.1328125 C-17.1875 5.1528125 -17.1875 3.1728125 -17.1875 1.1328125 C-16.47722656 1.14441406 -15.76695313 1.15601562 -15.03515625 1.16796875 C-14.11605469 1.17699219 -13.19695312 1.18601562 -12.25 1.1953125 C-11.33347656 1.20691406 -10.41695312 1.21851562 -9.47265625 1.23046875 C-6.1752125 1.08955235 -3.7303758 0.00362273 0 0 Z " fill="#9C9C9C" transform="translate(82.1875,91.8671875)"/>
<path d="M0 0 C5.94 0 11.88 0 18 0 C18 0.33 18 0.66 18 1 C15.36 1.33 12.72 1.66 10 2 C10 3.98 10 5.96 10 8 C29.14 8 48.28 8 68 8 C67.505 5.03 67.505 5.03 67 2 C64.36 1.67 61.72 1.34 59 1 C59 0.67 59 0.34 59 0 C65.27 0 71.54 0 78 0 C78 0.33 78 0.66 78 1 C75.36 1.33 72.72 1.66 70 2 C70 3.65 70 5.3 70 7 C75.94 7.33 81.88 7.66 88 8 C87.505 5.03 87.505 5.03 87 2 C84.36 1.67 81.72 1.34 79 1 C79 0.67 79 0.34 79 0 C80.95803507 -0.05389087 82.91648909 -0.09274217 84.875 -0.125 C86.51082031 -0.15980469 86.51082031 -0.15980469 88.1796875 -0.1953125 C91 0 91 0 93 2 C93.59423828 4.33496094 93.59423828 4.33496094 94.0703125 7.234375 C94.24433594 8.28367187 94.41835937 9.33296875 94.59765625 10.4140625 C94.77167969 11.51492187 94.94570312 12.61578125 95.125 13.75 C95.39763672 15.37808594 95.39763672 15.37808594 95.67578125 17.0390625 C96.49821398 22.097333 97.09787005 26.86324763 97 32 C96.01 32.33 95.02 32.66 94 33 C92.79117904 35.00016466 92.79117904 35.00016466 92 37 C85.84765625 37.09765625 85.84765625 37.09765625 84 37 C83.67 36.67 83.34 36.34 83 36 C83 33.36 83 30.72 83 28 C74.09 27.67 65.18 27.34 56 27 C56.33 24.69 56.66 22.38 57 20 C53.37 20.33 49.74 20.66 46 21 C46 20.34 46 19.68 46 19 C43.03 19 40.06 19 37 19 C37 18.67 37 18.34 37 18 C41.62 18 46.24 18 51 18 C50.505 14.535 50.505 14.535 50 11 C46.04900072 10.9753015 42.09803126 10.95714077 38.14697266 10.94506836 C36.14093449 10.93755964 34.13491798 10.9248553 32.12890625 10.91210938 C30.87207031 10.90888672 29.61523438 10.90566406 28.3203125 10.90234375 C26.57645264 10.89448853 26.57645264 10.89448853 24.79736328 10.88647461 C22.04497808 10.80643717 22.04497808 10.80643717 20 12 C18.45386986 11.91348369 16.91090613 11.75997364 15.375 11.5625 C14.55773437 11.46066406 13.74046875 11.35882813 12.8984375 11.25390625 C12.27195313 11.17011719 11.64546875 11.08632812 11 11 C11.495 14.465 11.495 14.465 12 18 C11.01 17.67 10.02 17.34 9 17 C9.33 15.02 9.66 13.04 10 11 C7.03 11 4.06 11 1 11 C1 13.31 1 15.62 1 18 C0.34 17.67 -0.32 17.34 -1 17 C-0.67 15.02 -0.34 13.04 0 11 C-0.92619141 11.12568359 -0.92619141 11.12568359 -1.87109375 11.25390625 C-7.82453683 11.96976927 -13.06653189 11.86130989 -19 11 C-19 13.31 -19 15.62 -19 18 C-19.99 17.67 -20.98 17.34 -22 17 C-21.67 15.02 -21.34 13.04 -21 11 C-22.68029297 11.10828125 -22.68029297 11.10828125 -24.39453125 11.21875 C-25.86718434 11.31254956 -27.33984077 11.40629683 -28.8125 11.5 C-29.91948242 11.57154297 -29.91948242 11.57154297 -31.04882812 11.64453125 C-34.03824588 11.83390613 -37.00374574 12 -40 12 C-40.1875 9.625 -40.1875 9.625 -40 7 C-39.01 6.34 -38.02 5.68 -37 5 C-37 5.99 -37 6.98 -37 8 C-22.48 8 -7.96 8 7 8 C7 6.02 7 4.04 7 2 C4.69 1.67 2.38 1.34 0 1 C0 0.67 0 0.34 0 0 Z " fill="#AFAFAF" transform="translate(54,82)"/>
<path d="M0 0 C3.875 1.875 3.875 1.875 5 3 C4.95979396 5.99592994 4.84951987 8.95894455 4.6875 11.94921875 C4.61583618 13.34849861 4.61583618 13.34849861 4.54272461 14.77604675 C3.97127551 25.36688515 3.13633689 35.93688126 2.27050781 46.50708008 C1.99660252 49.85401484 1.72840321 53.20137316 1.4609375 56.54882812 C1.28678651 58.70575569 1.11231922 60.86265774 0.9375 63.01953125 C0.81870483 64.49931206 0.81870483 64.49931206 0.69750977 66.00898743 C0.25690346 71.36107681 -0.29090141 76.67666197 -1 82 C-2.65 82 -4.3 82 -6 82 C-5.67 82.33 -5.34 82.66 -5 83 C-4.95919217 84.99958364 -4.95745644 87.00045254 -5 89 C-7.97922593 89.02683987 -10.95821295 89.04676037 -13.9375 89.0625 C-14.78763672 89.07087891 -15.63777344 89.07925781 -16.51367188 89.08789062 C-17.32255859 89.09111328 -18.13144531 89.09433594 -18.96484375 89.09765625 C-19.7137085 89.10289307 -20.46257324 89.10812988 -21.23413086 89.11352539 C-23 89 -23 89 -24 88 C-24.125 85.5 -24.125 85.5 -24 83 C-23.67 82.67 -23.34 82.34 -23 82 C-23.99 82 -24.98 82 -26 82 C-25.67 82.33 -25.34 82.66 -25 83 C-24.95919217 84.99958364 -24.95745644 87.00045254 -25 89 C-32.16870378 89.85963909 -39.22501709 90.14749072 -46.44140625 90.1328125 C-47.49029526 90.13376923 -48.53918427 90.13472595 -49.61985779 90.13571167 C-51.81566427 90.13638736 -54.01147283 90.13457606 -56.20727539 90.13037109 C-59.58419177 90.12496528 -62.96097807 90.13036152 -66.33789062 90.13671875 C-68.47656279 90.13605881 -70.61523488 90.1347794 -72.75390625 90.1328125 C-73.76731583 90.13483673 -74.7807254 90.13686096 -75.82484436 90.13894653 C-77.21780983 90.13421829 -77.21780983 90.13421829 -78.63891602 90.12939453 C-79.86941429 90.12820114 -79.86941429 90.12820114 -81.12477112 90.12698364 C-83 90 -83 90 -84 89 C-84.14636054 85.63370749 -84.07193479 83.21580438 -83 80 C-56.93 80 -30.86 80 -4 80 C-3.67 73.07 -3.34 66.14 -3 59 C-2.77519481 55.23451305 -2.54441032 51.47336265 -2.28125 47.7109375 C-2.21844849 46.79011383 -2.15564697 45.86929016 -2.09094238 44.92056274 C-1.96091369 43.02070124 -1.82986543 41.12090921 -1.69775391 39.22119141 C-1.49768261 36.3416467 -1.30134598 33.46186401 -1.10546875 30.58203125 C-0.49775438 21.71248575 0.11243141 12.84697047 1 4 C1.33 4 1.66 4 2 4 C2.495 6.97 2.495 6.97 3 10 C3.30495485 5.57335436 3.30495485 5.57335436 1.5 1.625 C1.005 1.08875 0.51 0.5525 0 0 Z " fill="#727272" transform="translate(147,1)"/>
<path d="M0 0 C22.44 0 44.88 0 68 0 C68 2.97 68 5.94 68 9 C45.56 9 23.12 9 0 9 C0 6.03 0 3.06 0 0 Z " fill="#262626" transform="translate(46,110)"/>
<path d="M0 0 C0.33 0 0.66 0 1 0 C1.67476789 3.8736343 2.33837032 7.74910183 3 11.625 C3.19078125 12.71941406 3.3815625 13.81382813 3.578125 14.94140625 C3.75859375 16.00488281 3.9390625 17.06835938 4.125 18.1640625 C4.37636719 19.62513428 4.37636719 19.62513428 4.6328125 21.11572266 C5.01375517 24.10804756 5.06252962 26.98685417 5 30 C4.01 30.33 3.02 30.66 2 31 C0.79117904 33.00016466 0.79117904 33.00016466 0 35 C-6.15234375 35.09765625 -6.15234375 35.09765625 -8 35 C-9 34 -9 34 -9.09765625 32.15234375 C-9.06510417 30.1015625 -9.03255208 28.05078125 -9 26 C-9.72179443 25.97494385 -10.44358887 25.9498877 -11.18725586 25.92407227 C-14.437535 25.80848698 -17.68749688 25.68559226 -20.9375 25.5625 C-22.07380859 25.52318359 -23.21011719 25.48386719 -24.38085938 25.44335938 C-26.00024414 25.38051758 -26.00024414 25.38051758 -27.65234375 25.31640625 C-28.65257568 25.27974854 -29.65280762 25.24309082 -30.68334961 25.20532227 C-33 25 -33 25 -34 24 C-34.04080783 22.00041636 -34.04254356 19.99954746 -34 18 C-33.02160156 18.03480469 -33.02160156 18.03480469 -32.0234375 18.0703125 C-26.91301097 18.17583753 -22.79574967 18.01926302 -18 16 C-18.33 15.67 -18.66 15.34 -19 15 C-19.04080783 13.00041636 -19.04254356 10.99954746 -19 9 C-16.37493198 8.97309156 -13.75013827 8.95320596 -11.125 8.9375 C-10.37863281 8.92912109 -9.63226563 8.92074219 -8.86328125 8.91210938 C-3.2265625 8.88671875 -3.2265625 8.88671875 -1 10 C-0.67 6.7 -0.34 3.4 0 0 Z " fill="#8C8C8C" transform="translate(146,84)"/>
<path d="M0 0 C0.33 0 0.66 0 1 0 C1.33 2.97 1.66 5.94 2 9 C2.68238235 8.99777939 3.36476471 8.99555878 4.06782532 8.99327087 C11.15645831 8.97118377 18.24508156 8.95607901 25.33374023 8.94506836 C27.98087969 8.940033 30.62801635 8.93320437 33.27514648 8.92456055 C37.07536507 8.91246021 40.87554695 8.90676378 44.67578125 8.90234375 C45.86335526 8.89718246 47.05092926 8.89202118 48.27449036 8.88670349 C49.9258625 8.88659019 49.9258625 8.88659019 51.6105957 8.88647461 C53.06620659 8.88314369 53.06620659 8.88314369 54.55122375 8.87974548 C57 9 57 9 60 10 C60 9.34 60 8.68 60 8 C65.05370732 7.97525678 70.10737926 7.95711947 75.16113281 7.94506836 C76.87988906 7.9400437 78.59864105 7.9332229 80.31738281 7.92456055 C82.78972426 7.9124132 85.26200912 7.90675297 87.734375 7.90234375 C88.50118591 7.89718246 89.26799683 7.89202118 90.05804443 7.88670349 C95.55815525 7.88612686 95.55815525 7.88612686 97.92166138 8.49525452 C100.33580351 9.08155327 102.52816055 9.15381902 105.01220703 9.18945312 C106.50362717 9.21452942 106.50362717 9.21452942 108.025177 9.2401123 C109.09194672 9.25368774 110.15871643 9.26726318 111.2578125 9.28125 C112.35721161 9.29965942 113.45661072 9.31806885 114.58932495 9.33703613 C119.29496528 9.4157301 124.00074699 9.48359985 128.70654297 9.55224609 C132.14037352 9.60387908 135.57407769 9.66115191 139.0078125 9.71875 C140.07863068 9.73232544 141.14944885 9.74590088 142.25271606 9.7598877 C143.24069183 9.77660522 144.2286676 9.79332275 145.24658203 9.81054688 C146.11832062 9.82307495 146.9900592 9.83560303 147.88821411 9.84851074 C150 10 150 10 152 11 C152.66 9.02 153.32 7.04 154 5 C154.33 5 154.66 5 155 5 C155.1875 7.875 155.1875 7.875 155 11 C151.68593389 13.2093774 150.67994414 13.24883269 146.82592773 13.24291992 C145.77150986 13.24599655 144.71709198 13.24907318 143.63072205 13.25224304 C142.49316971 13.24505753 141.35561737 13.23787201 140.18359375 13.23046875 C139.01619156 13.23001053 137.84878937 13.22955231 136.64601135 13.2290802 C134.17716455 13.2260577 131.70831966 13.21817149 129.23950195 13.20581055 C125.44931322 13.18755689 121.65936872 13.18530084 117.86914062 13.18554688 C115.47395621 13.18063163 113.07877346 13.17480329 110.68359375 13.16796875 C109.54401718 13.16685593 108.40444061 13.1657431 107.23033142 13.16459656 C106.1790657 13.15821671 105.12779999 13.15183685 104.04467773 13.14526367 C103.11662827 13.14145187 102.1885788 13.13764008 101.23240662 13.13371277 C99 13 99 13 97 12 C94.03373289 11.9007499 91.09143413 11.86019185 88.125 11.8671875 C87.24473145 11.86623077 86.36446289 11.86527405 85.45751953 11.86428833 C83.59472584 11.86360724 81.73192977 11.86545657 79.86914062 11.86962891 C77.01166472 11.87497816 74.154346 11.86968151 71.296875 11.86328125 C69.48958299 11.86394204 67.68229107 11.86522323 65.875 11.8671875 C65.01664551 11.86516327 64.15829102 11.86313904 63.27392578 11.86105347 C59.00199198 11.75357322 59.00199198 11.75357322 55 13 C53.32090261 13.10563292 51.63769355 13.14875499 49.95532227 13.16113281 C48.90405655 13.17074036 47.85279083 13.1803479 46.76966858 13.19024658 C45.06030373 13.1966214 45.06030373 13.1966214 43.31640625 13.203125 C41.56673805 13.21167511 41.56673805 13.21167511 39.78172302 13.22039795 C37.31111562 13.22985648 34.84049556 13.2363853 32.36987305 13.24023438 C28.58164614 13.24995089 24.7939591 13.2809715 21.00585938 13.3125 C18.60937823 13.31902869 16.2128932 13.32427969 13.81640625 13.328125 C12.11007774 13.3466452 12.11007774 13.3466452 10.36927795 13.36553955 C9.31486008 13.36253845 8.2604422 13.35953735 7.17407227 13.35644531 C6.2452272 13.36009094 5.31638214 13.36373657 4.35939026 13.36749268 C2 13 2 13 0.18125916 11.63275146 C-1.53966483 9.25406839 -1.09493732 7.66456121 -0.6875 4.8125 C-0.56761719 3.91144531 -0.44773438 3.01039063 -0.32421875 2.08203125 C-0.21722656 1.39496094 -0.11023438 0.70789063 0 0 Z " fill="#858585" transform="translate(3,146)"/>
<path d="M0 0 C17.40230919 -0.09341112 34.80454022 -0.16396329 52.20704269 -0.20724869 C60.28720222 -0.22788041 68.36720604 -0.2560125 76.44726562 -0.30175781 C83.48925481 -0.3416071 90.53113123 -0.36742838 97.57323003 -0.37635398 C101.30257069 -0.38157203 105.03158877 -0.39384851 108.76082611 -0.42292023 C112.92240249 -0.45509962 117.08341684 -0.45596065 121.24511719 -0.45410156 C123.10304398 -0.47567322 123.10304398 -0.47567322 124.99850464 -0.49768066 C126.69799759 -0.48943268 126.69799759 -0.48943268 128.43182373 -0.48101807 C129.90853609 -0.48654882 129.90853609 -0.48654882 131.41508102 -0.49219131 C134.74543316 0.14193703 135.94666397 1.35142146 138 4 C138.171875 6.796875 138.171875 6.796875 137.75 9.75 C137.62109375 10.73484375 137.4921875 11.7196875 137.359375 12.734375 C137.18148437 13.85585938 137.18148437 13.85585938 137 15 C136.67 15 136.34 15 136 15 C135.67 11.37 135.34 7.74 135 4 C90.12 3.67 45.24 3.34 -1 3 C-0.67 2.01 -0.34 1.02 0 0 Z " fill="#A5A5A5" transform="translate(13,1)"/>
<path d="M0 0 C5.55012695 -0.02484561 11.10022102 -0.04292868 16.65039062 -0.05493164 C18.53581303 -0.05993919 20.4212316 -0.06674715 22.30664062 -0.07543945 C25.02735344 -0.08766253 27.7480146 -0.09326424 30.46875 -0.09765625 C31.71924133 -0.10539818 31.71924133 -0.10539818 32.99499512 -0.11329651 C38.08568843 -0.113777 42.96898104 0.19255689 48 1 C49 2 49 2 49.0625 5.0625 C49.041875 6.031875 49.02125 7.00125 49 8 C40.29786393 9.16281933 31.63211849 9.11579895 22.875 9.0625 C21.42708489 9.05747252 19.97916808 9.05291183 18.53125 9.04882812 C15.02079741 9.03792705 11.51040993 9.02073202 8 9 C8 6.69 8 4.38 8 2 C5.36 1.67 2.72 1.34 0 1 C0 0.67 0 0.34 0 0 Z " fill="#969696" transform="translate(73,82)"/>
<path d="M0 0 C0.66 0.33 1.32 0.66 2 1 C1.67 1.66 1.34 2.32 1 3 C45.88 3 90.76 3 137 3 C135 5 135 5 131.90234375 5.17773438 C130.59394531 5.15001953 129.28554687 5.12230469 127.9375 5.09375 C126.47919611 5.0733003 125.02085858 5.05514557 123.5625 5.0390625 C122.80839844 5.0297168 122.05429688 5.02037109 121.27734375 5.01074219 C117.66120659 4.99368494 114.05137296 5.10009173 110.4375 5.21875 C109.39239258 5.25222534 109.39239258 5.25222534 108.32617188 5.28637695 C106.21737302 5.35551389 104.10869153 5.42767149 102 5.5 C100.53125787 5.5484165 99.06250786 5.59659444 97.59375 5.64453125 C94.06240545 5.76028969 90.53117647 5.87921012 87 6 C87 5.34 87 4.68 87 4 C58.62 4 30.24 4 1 4 C1.66 11.92 2.32 19.84 3 28 C3 30.64 3 33.28 3 36 C2.67 36 2.34 36 2 36 C2 43.59 2 51.18 2 59 C1.67 59 1.34 59 1 59 C0.40101491 52.00830579 -0.18566332 45.01565599 -0.76391602 38.0222168 C-0.96194779 35.64470204 -1.16276517 33.26741755 -1.36645508 30.89038086 C-1.65924155 27.46785736 -1.94190345 24.04462282 -2.22265625 20.62109375 C-2.31531265 19.56353378 -2.40796906 18.50597382 -2.50343323 17.41636658 C-2.93014789 12.09027389 -3.21484255 7.22791794 -2 2 C-1.34 1.34 -0.68 0.68 0 0 Z " fill="#4E4E4E" transform="translate(11,1)"/>
<path d="M0 0 C5.94 0 11.88 0 18 0 C18 0.33 18 0.66 18 1 C15.36 1.33 12.72 1.66 10 2 C10 3.98 10 5.96 10 8 C10.60863892 7.99777939 11.21727783 7.99555878 11.84436035 7.99327087 C18.20385143 7.97107299 24.56333141 7.95603305 30.92285156 7.94506836 C33.29329882 7.94005308 35.66374301 7.93323927 38.03417969 7.92456055 C41.44987753 7.91237187 44.86553431 7.90674351 48.28125 7.90234375 C49.33364868 7.89718246 50.38604736 7.89202118 51.47033691 7.88670349 C57.07912067 7.88628004 62.45252479 8.16149564 68 9 C68 9.33 68 9.66 68 10 C62.28728907 12.0662997 57.96345767 12.0006709 52 11 C52.26656572 13.93443402 52.26656572 13.93443402 53 17 C53.99 17.66 54.98 18.32 56 19 C54.72125 19.144375 53.4425 19.28875 52.125 19.4375 C49.74307106 19.70642746 48.15547309 19.92226346 46 21 C46 20.34 46 19.68 46 19 C43.03 19 40.06 19 37 19 C37 18.67 37 18.34 37 18 C41.62 18 46.24 18 51 18 C50.505 14.535 50.505 14.535 50 11 C46.04900072 10.9753015 42.09803126 10.95714077 38.14697266 10.94506836 C36.14093449 10.93755964 34.13491798 10.9248553 32.12890625 10.91210938 C30.87207031 10.90888672 29.61523438 10.90566406 28.3203125 10.90234375 C26.57645264 10.89448853 26.57645264 10.89448853 24.79736328 10.88647461 C22.04497808 10.80643717 22.04497808 10.80643717 20 12 C18.45386986 11.91348369 16.91090613 11.75997364 15.375 11.5625 C14.55773437 11.46066406 13.74046875 11.35882813 12.8984375 11.25390625 C12.27195313 11.17011719 11.64546875 11.08632812 11 11 C11.495 14.465 11.495 14.465 12 18 C11.01 17.67 10.02 17.34 9 17 C9.33 15.02 9.66 13.04 10 11 C7.03 11 4.06 11 1 11 C1 13.31 1 15.62 1 18 C0.34 17.67 -0.32 17.34 -1 17 C-0.67 15.02 -0.34 13.04 0 11 C-0.92619141 11.12568359 -0.92619141 11.12568359 -1.87109375 11.25390625 C-7.82453683 11.96976927 -13.06653189 11.86130989 -19 11 C-19 13.31 -19 15.62 -19 18 C-19.99 17.67 -20.98 17.34 -22 17 C-21.67 15.02 -21.34 13.04 -21 11 C-22.68029297 11.10828125 -22.68029297 11.10828125 -24.39453125 11.21875 C-25.86718434 11.31254956 -27.33984077 11.40629683 -28.8125 11.5 C-29.91948242 11.57154297 -29.91948242 11.57154297 -31.04882812 11.64453125 C-34.03824588 11.83390613 -37.00374574 12 -40 12 C-40.1875 9.625 -40.1875 9.625 -40 7 C-39.01 6.34 -38.02 5.68 -37 5 C-37 5.99 -37 6.98 -37 8 C-22.48 8 -7.96 8 7 8 C7 6.02 7 4.04 7 2 C4.69 1.67 2.38 1.34 0 1 C0 0.67 0 0.34 0 0 Z " fill="#A4A4A4" transform="translate(54,82)"/>
<path d="M0 0 C1.25554687 -0.00128906 2.51109375 -0.00257812 3.8046875 -0.00390625 C4.46178711 -0.00181152 5.11888672 0.0002832 5.79589844 0.00244141 C7.80411335 0.00779016 9.81210459 0.00249559 11.8203125 -0.00390625 C13.07585937 -0.00261719 14.33140625 -0.00132813 15.625 0 C16.78644531 0.00112793 17.94789062 0.00225586 19.14453125 0.00341797 C21.8125 0.1328125 21.8125 0.1328125 22.8125 1.1328125 C22.85342937 3.46578683 22.85491723 5.79986475 22.8125 8.1328125 C17.27661467 8.15746025 11.740761 8.17564746 6.20483398 8.18774414 C4.3200627 8.19278494 2.43529535 8.19961748 0.55053711 8.20825195 C-2.15251636 8.22032867 -4.85551831 8.22604318 -7.55859375 8.23046875 C-8.40650986 8.23563004 -9.25442596 8.24079132 -10.1280365 8.24610901 C-12.14821068 8.24630445 -14.16827934 8.19487461 -16.1875 8.1328125 C-17.1875 7.1328125 -17.1875 7.1328125 -17.25 4.0703125 C-17.229375 3.1009375 -17.20875 2.1315625 -17.1875 1.1328125 C-16.47722656 1.14441406 -15.76695313 1.15601562 -15.03515625 1.16796875 C-14.11605469 1.17699219 -13.19695312 1.18601562 -12.25 1.1953125 C-10.87521484 1.21271484 -10.87521484 1.21271484 -9.47265625 1.23046875 C-6.1752125 1.08955235 -3.7303758 0.00362273 0 0 Z " fill="#8B8B8B" transform="translate(82.1875,91.8671875)"/>
<path d="M0 0 C3.875 1.875 3.875 1.875 5 3 C4.95629309 5.9904421 4.84323908 8.94880273 4.6796875 11.93359375 C4.63149872 12.86562119 4.58330994 13.79764862 4.53366089 14.75791931 C3.9592361 25.42420026 3.2068843 36.07738083 2.38037109 46.72680664 C2.20782745 48.98059619 2.0413141 51.23485431 1.88037109 53.48950195 C1.64406856 56.79750063 1.39048968 60.10376236 1.1328125 63.41015625 C1.06393829 64.41732193 0.99506409 65.42448761 0.92410278 66.46217346 C0.84747406 67.39512741 0.77084534 68.32808136 0.69189453 69.28930664 C0.630513 70.10532852 0.56913147 70.9213504 0.50588989 71.76210022 C-0.09788883 74.43302977 -1.23715718 75.93605026 -3 78 C-3.20879029 64.09678555 -2.57950512 50.36332357 -1.5625 36.5 C-1.42585065 34.55993671 -1.28978095 32.61983251 -1.15429688 30.6796875 C-0.52692353 21.77834679 0.11851764 12.88050787 1 4 C1.33 4 1.66 4 2 4 C2.33 5.98 2.66 7.96 3 10 C3.30495485 5.57335436 3.30495485 5.57335436 1.5 1.625 C1.005 1.08875 0.51 0.5525 0 0 Z " fill="#6D6D6D" transform="translate(147,1)"/>
<path d="M0 0 C10.89 0 21.78 0 33 0 C33 2.31 33 4.62 33 7 C28.46102295 7.02465392 23.92208457 7.04283789 19.38305664 7.05493164 C17.83780234 7.0599714 16.29255284 7.0668032 14.74731445 7.07543945 C12.53074971 7.08752076 10.31424782 7.09323173 8.09765625 7.09765625 C7.05545677 7.10539818 7.05545677 7.10539818 5.99220276 7.11329651 C4.3277067 7.11349277 2.66334501 7.06189129 1 7 C0.67 6.67 0.34 6.34 0 6 C0 4.02 0 2.04 0 0 Z " fill="#535353" transform="translate(112,102)"/>
<path d="M0 0 C0.33 0 0.66 0 1 0 C1.33 2.97 1.66 5.94 2 9 C4.20852661 8.99214478 4.20852661 8.99214478 6.46166992 8.98413086 C35.65873763 8.88945173 64.81970203 8.9385903 94 10 C94 10.33 94 10.66 94 11 C92.88963379 11.02505615 91.77926758 11.0501123 90.63525391 11.07592773 C86.52396681 11.16994915 82.41285077 11.27018257 78.30175781 11.37231445 C76.52087397 11.4156833 74.73994802 11.45735694 72.95898438 11.49731445 C70.40221452 11.5549699 67.84565702 11.6186777 65.2890625 11.68359375 C64.49005524 11.70030624 63.69104797 11.71701874 62.86782837 11.73423767 C58.80193632 11.75392991 58.80193632 11.75392991 55 13 C53.32090261 13.10563292 51.63769355 13.14875499 49.95532227 13.16113281 C48.90405655 13.17074036 47.85279083 13.1803479 46.76966858 13.19024658 C45.06030373 13.1966214 45.06030373 13.1966214 43.31640625 13.203125 C41.56673805 13.21167511 41.56673805 13.21167511 39.78172302 13.22039795 C37.31111562 13.22985648 34.84049556 13.2363853 32.36987305 13.24023438 C28.58164614 13.24995089 24.7939591 13.2809715 21.00585938 13.3125 C18.60937823 13.31902869 16.2128932 13.32427969 13.81640625 13.328125 C12.11007774 13.3466452 12.11007774 13.3466452 10.36927795 13.36553955 C9.31486008 13.36253845 8.2604422 13.35953735 7.17407227 13.35644531 C6.2452272 13.36009094 5.31638214 13.36373657 4.35939026 13.36749268 C2 13 2 13 0.18125916 11.63275146 C-1.53966483 9.25406839 -1.09493732 7.66456121 -0.6875 4.8125 C-0.56761719 3.91144531 -0.44773438 3.01039063 -0.32421875 2.08203125 C-0.21722656 1.39496094 -0.11023438 0.70789063 0 0 Z " fill="#797979" transform="translate(3,146)"/>
<path d="M0 0 C22.44 0 44.88 0 68 0 C68 0.99 68 1.98 68 3 C45.56 3 23.12 3 0 3 C0 2.01 0 1.02 0 0 Z " fill="#4A4A4A" transform="translate(46,116)"/>
<path d="M0 0 C0.66 0 1.32 0 2 0 C2 1.98 2 3.96 2 6 C2.78022018 5.98747192 3.56044037 5.97494385 4.36430359 5.96203613 C11.81882311 5.84263874 19.27336611 5.7248842 26.72793865 5.60884857 C30.55781654 5.54917929 34.38768338 5.48893586 38.2175293 5.42724609 C62.76661899 5.03256026 87.26498786 4.8748262 111.8125 5.5 C113.78840575 5.54841075 115.76431721 5.59658872 117.74023438 5.64453125 C122.49355935 5.76035492 127.24679728 5.87926743 132 6 C132 6.33 132 6.66 132 7 C125.41816638 7.8931507 119.57849492 7.95494281 113 7 C112.67 7.66 112.34 8.32 112 9 C111.505 8.505 111.505 8.505 111 8 C105.82264323 7.62947661 105.82264323 7.62947661 101 9 C101 8.34 101 7.68 101 7 C78.56 7 56.12 7 33 7 C32.67 7.66 32.34 8.32 32 9 C31.505 8.505 31.505 8.505 31 8 C28.32461085 7.95684856 25.67305179 7.95319559 23 8 C22.01 8 21.02 8 20 8 C19.28585938 8.01160156 18.57171875 8.02320312 17.8359375 8.03515625 C12.13136177 8.09854042 6.65813328 7.73008171 1 7 C0.67 7.66 0.34 8.32 0 9 C-1.125 6.75 -1.125 6.75 -2 4 C-1.125 1.6875 -1.125 1.6875 0 0 Z " fill="#C6C6C6" transform="translate(13,103)"/>
<path d="M0 0 C7.92 0 15.84 0 24 0 C23.67 2.31 23.34 4.62 23 7 C11.615 6.505 11.615 6.505 0 6 C0 4.02 0 2.04 0 0 Z " fill="#4D4D4D" transform="translate(18,84)"/>
<path d="M0 0 C0.66 0.33 1.32 0.66 2 1 C1.98839844 2.10214844 1.97679687 3.20429688 1.96484375 4.33984375 C1.88958095 14.93543465 2.25084708 25.43159278 3 36 C2.67 36 2.34 36 2 36 C2 43.59 2 51.18 2 59 C1.67 59 1.34 59 1 59 C0.40101491 52.00830579 -0.18566332 45.01565599 -0.76391602 38.0222168 C-0.96194779 35.64470204 -1.16276517 33.26741755 -1.36645508 30.89038086 C-1.65924155 27.46785736 -1.94190345 24.04462282 -2.22265625 20.62109375 C-2.31531265 19.56353378 -2.40796906 18.50597382 -2.50343323 17.41636658 C-2.93014789 12.09027389 -3.21484255 7.22791794 -2 2 C-1.34 1.34 -0.68 0.68 0 0 Z " fill="#4C4C4C" transform="translate(11,1)"/>
<path d="M0 0 C6.6 0 13.2 0 20 0 C20 1.98 20 3.96 20 6 C18.4779041 7.5220959 17.11789918 7.12959521 15 7.1328125 C14.195625 7.13410156 13.39125 7.13539062 12.5625 7.13671875 C11.716875 7.13285156 10.87125 7.12898438 10 7.125 C9.154375 7.12886719 8.30875 7.13273437 7.4375 7.13671875 C6.633125 7.13542969 5.82875 7.13414063 5 7.1328125 C4.2575 7.13168457 3.515 7.13055664 2.75 7.12939453 C1 7 1 7 0 6 C0 4.02 0 2.04 0 0 Z " fill="#5A5A5A" transform="translate(91,102)"/>
<path d="M0 0 C0.33 0 0.66 0 1 0 C1.33 3.96 1.66 7.92 2 12 C1.01 11.34 0.02 10.68 -1 10 C-0.67 6.7 -0.34 3.4 0 0 Z M-19 9 C-16.37438891 8.91925797 -13.75124324 8.8596377 -11.125 8.8125 C-10.00544922 8.77479492 -10.00544922 8.77479492 -8.86328125 8.73632812 C-6.6953125 8.70703125 -6.6953125 8.70703125 -3 9 C-2.34 9.99 -1.68 10.98 -1 12 C-1.66 13.32 -2.32 14.64 -3 16 C-5.47923801 16.02685095 -7.9581884 16.04676547 -10.4375 16.0625 C-11.14455078 16.07087891 -11.85160156 16.07925781 -12.58007812 16.08789062 C-14.38693559 16.09653588 -16.19387603 16.05220011 -18 16 C-19 15 -19 15 -19.0625 11.9375 C-19.041875 10.968125 -19.02125 9.99875 -19 9 Z " fill="#535353" transform="translate(146,84)"/>
<path d="M0 0 C25.74 0 51.48 0 78 0 C78 0.33 78 0.66 78 1 C65.27552296 1.85310742 52.62565164 2.12766726 39.875 2.0625 C38.12630339 2.05746474 36.37760535 2.05290549 34.62890625 2.04882812 C30.41923411 2.03800641 26.20963387 2.02085884 22 2 C22 2.66 22 3.32 22 4 C19.03 3.505 19.03 3.505 16 3 C16 2.67 16 2.34 16 2 C10.72 1.67 5.44 1.34 0 1 C0 0.67 0 0.34 0 0 Z " fill="#C6C6C6" transform="translate(41,152)"/>
<path d="M0 0 C1.48831242 0.00667405 2.97660807 0.01863442 4.46484375 0.03515625 C5.22345703 0.03966797 5.98207031 0.04417969 6.76367188 0.04882812 C8.64326246 0.06064945 10.52281274 0.07858547 12.40234375 0.09765625 C12.44488731 2.09720371 12.44315158 4.09807261 12.40234375 6.09765625 C11.40234375 7.09765625 11.40234375 7.09765625 7.8046875 7.1953125 C6.31637508 7.18863845 4.82807943 7.17667808 3.33984375 7.16015625 C2.58123047 7.15564453 1.82261719 7.15113281 1.04101562 7.14648438 C-0.83857496 7.13466305 -2.71812524 7.11672703 -4.59765625 7.09765625 C-4.64019981 5.09810879 -4.63846408 3.09723989 -4.59765625 1.09765625 C-3.59765625 0.09765625 -3.59765625 0.09765625 0 0 Z " fill="#1A1A1A" transform="translate(20.59765625,92.90234375)"/>
<path d="M0 0 C19.8 0.495 19.8 0.495 40 1 C40 1.33 40 1.66 40 2 C38.88963379 2.02505615 37.77926758 2.0501123 36.63525391 2.07592773 C32.52396681 2.16994915 28.41285077 2.27018257 24.30175781 2.37231445 C22.52087397 2.4156833 20.73994802 2.45735694 18.95898438 2.49731445 C16.40221452 2.5549699 13.84565702 2.6186777 11.2890625 2.68359375 C10.49005524 2.70030624 9.69104797 2.71701874 8.86782837 2.73423767 C4.80193632 2.75392991 4.80193632 2.75392991 1 4 C-0.69543591 4.09051069 -2.39443978 4.11754872 -4.09228516 4.11352539 C-5.68370834 4.11341209 -5.68370834 4.11341209 -7.30728149 4.11329651 C-9.03076309 4.10555458 -9.03076309 4.10555458 -10.7890625 4.09765625 C-11.96262299 4.0962413 -13.13618347 4.09482635 -14.3453064 4.09336853 C-18.10522985 4.08775689 -21.86509445 4.07520238 -25.625 4.0625 C-28.16926998 4.0574865 -30.71354088 4.05292333 -33.2578125 4.04882812 C-39.50522853 4.03778368 -45.75261006 4.02103418 -52 4 C-52 3.67 -52 3.34 -52 3 C-34.84 3 -17.68 3 0 3 C0 2.01 0 1.02 0 0 Z " fill="#4C4C4C" transform="translate(57,155)"/>
<path d="M0 0 C0 0.33 0 0.66 0 1 C-5.71271093 3.0662997 -10.03654233 3.0006709 -16 2 C-15.73343428 4.93443402 -15.73343428 4.93443402 -15 8 C-14.01 8.66 -13.02 9.32 -12 10 C-13.918125 10.2165625 -13.918125 10.2165625 -15.875 10.4375 C-18.25692894 10.70642746 -19.84452691 10.92226346 -22 12 C-22 11.34 -22 10.68 -22 10 C-24.97 10 -27.94 10 -31 10 C-31 9.67 -31 9.34 -31 9 C-26.38 9 -21.76 9 -17 9 C-17.33 6.69 -17.66 4.38 -18 2 C-27.57 1.67 -37.14 1.34 -47 1 C-47 0.67 -47 0.34 -47 0 C-41.91396968 -0.16912527 -36.82776175 -0.32950463 -31.74121094 -0.48217773 C-30.0149006 -0.53517849 -28.28865882 -0.59046835 -26.5625 -0.64819336 C-17.61856588 -0.94580691 -8.8927958 -1.23257437 0 0 Z " fill="#BFBFBF" transform="translate(122,91)"/>
<path d="M0 0 C0.33 0 0.66 0 1 0 C1.1875 2.875 1.1875 2.875 1 6 C-2.30933135 8.2062209 -3.32485874 8.25219505 -7.17407227 8.25878906 C-8.22849014 8.26509338 -9.28290802 8.27139771 -10.36927795 8.27789307 C-11.50683029 8.2738446 -12.64438263 8.26979614 -13.81640625 8.265625 C-14.98380844 8.26753845 -16.15121063 8.2694519 -17.35398865 8.27142334 C-19.82282731 8.27278501 -22.29167313 8.26908986 -24.76049805 8.26074219 C-28.55078105 8.25003311 -32.34059108 8.26064335 -36.13085938 8.2734375 C-38.52604272 8.27211609 -40.92122577 8.26955408 -43.31640625 8.265625 C-45.0257711 8.27169769 -45.0257711 8.27169769 -46.76966858 8.27789307 C-48.34656715 8.26843658 -48.34656715 8.26843658 -49.95532227 8.25878906 C-50.88337173 8.25719788 -51.8114212 8.25560669 -52.76759338 8.25396729 C-55 8 -55 8 -57 6 C-45.45 6 -33.9 6 -22 6 C-22 5.67 -22 5.34 -22 5 C-19.04160645 4.97310551 -16.08345573 4.95321259 -13.125 4.9375 C-11.86236328 4.92493164 -11.86236328 4.92493164 -10.57421875 4.91210938 C-9.76855469 4.90888672 -8.96289062 4.90566406 -8.1328125 4.90234375 C-7.01737061 4.89448853 -7.01737061 4.89448853 -5.87939453 4.88647461 C-4 5 -4 5 -2 6 C-1.34 4.02 -0.68 2.04 0 0 Z " fill="#606060" transform="translate(157,151)"/>
<path d="M0 0 C2.97 0 5.94 0 9 0 C9.09765625 6.15234375 9.09765625 6.15234375 9 8 C8 9 8 9 5.93359375 9.09765625 C5.10988281 9.08605469 4.28617188 9.07445313 3.4375 9.0625 C2.61121094 9.05347656 1.78492188 9.04445313 0.93359375 9.03515625 C0.29550781 9.02355469 -0.34257812 9.01195313 -1 9 C-1.125 2.25 -1.125 2.25 0 0 Z " fill="#4D4D4D" transform="translate(14,110)"/>
<path d="M0 0 C2.58186812 3.79686489 1.71416445 6.63566172 1 11 C1.33 11.99 1.66 12.98 2 14 C1.01 15.485 1.01 15.485 0 17 C0.33 17.99 0.66 18.98 1 20 C0.34 20 -0.32 20 -1 20 C-2.29676812 24.61073111 -1.71109139 28.33840089 -1 33 C-1.33 32.34 -1.66 31.68 -2 31 C-2.99 31.33 -3.98 31.66 -5 32 C-4.58583549 24.71641723 -3.69466869 17.56602806 -2.5 10.375 C-2.36940186 9.58109863 -2.23880371 8.78719727 -2.10424805 7.96923828 C-1.12949232 2.25898463 -1.12949232 2.25898463 0 0 Z M3 2 C3.33 2 3.66 2 4 2 C4 3.65 4 5.3 4 7 C3.34 5.68 2.68 4.36 2 3 C2.33 2.67 2.66 2.34 3 2 Z " fill="#7F7F7F" transform="translate(14,83)"/>
<path d="M0 0 C0.33 0 0.66 0 1 0 C3.29016634 16.07563364 4.14568203 31.76454673 4 48 C3.67 48 3.34 48 3 48 C0.80674998 31.98714546 -0.19342359 16.16161573 0 0 Z " fill="#818181" transform="translate(12,30)"/>
<path d="M0 0 C2.97 0 5.94 0 9 0 C9.33 2.97 9.66 5.94 10 9 C7.03 9 4.06 9 1 9 C-0.4783226 6.04335481 -0.06032783 3.25770263 0 0 Z " fill="#4D4D4D" transform="translate(126,110)"/>
<path d="M0 0 C6.15234375 -0.09765625 6.15234375 -0.09765625 8 0 C9 1 9 1 9.125 3.9375 C9 7 9 7 8 9 C5.03 9 2.06 9 -1 9 C-0.67 6.03 -0.34 3.06 0 0 Z " fill="#464646" transform="translate(25,110)"/>
<path d="M0 0 C6.93 0 13.86 0 21 0 C21 1.32 21 2.64 21 4 C14.07 4 7.14 4 0 4 C0 2.68 0 1.36 0 0 Z " fill="#151515" transform="translate(123,102)"/>
<path d="M0 0 C6.93 0 13.86 0 21 0 C21 1.32 21 2.64 21 4 C14.07 4 7.14 4 0 4 C0 2.68 0 1.36 0 0 Z " fill="#191919" transform="translate(16,102)"/>
<path d="M0 0 C5.05369645 -0.04948633 10.10725142 -0.08576045 15.16113281 -0.10986328 C16.87990781 -0.1199127 18.59866575 -0.13355445 20.31738281 -0.15087891 C22.78975641 -0.17517391 25.26190369 -0.18649368 27.734375 -0.1953125 C28.50118591 -0.20563507 29.26799683 -0.21595764 30.05804443 -0.22659302 C33.85956767 -0.22739012 36.77864518 -0.14509572 40 2 C39 3 39 3 35.30639648 3.02172852 C33.66115181 2.97937951 32.01604746 2.93135416 30.37109375 2.87890625 C29.07474754 2.84348976 29.07474754 2.84348976 27.75221252 2.80735779 C24.98048252 2.73052738 22.20901845 2.64658704 19.4375 2.5625 C17.56316424 2.50929868 15.68881533 2.45655818 13.81445312 2.40429688 C9.20946568 2.27488618 4.60470463 2.13909684 0 2 C0 1.34 0 0.68 0 0 Z " fill="#7A7A7A" transform="translate(63,154)"/>
<path d="M0 0 C2.05078125 0.03255208 4.1015625 0.06510417 6.15234375 0.09765625 C6.15234375 3.06765625 6.15234375 6.03765625 6.15234375 9.09765625 C3.18234375 9.09765625 0.21234375 9.09765625 -2.84765625 9.09765625 C-2.9453125 2.9453125 -2.9453125 2.9453125 -2.84765625 1.09765625 C-1.84765625 0.09765625 -1.84765625 0.09765625 0 0 Z " fill="#404040" transform="translate(37.84765625,109.90234375)"/>
<path d="M0 0 C6.15234375 -0.09765625 6.15234375 -0.09765625 8 0 C9 1 9 1 9.09765625 2.84765625 C9.04882812 5.92382812 9.04882812 5.92382812 9 9 C6.03 9 3.06 9 0 9 C0 6.03 0 3.06 0 0 Z " fill="#242424" transform="translate(116,110)"/>
<path d="M0 0 C2.97 0 5.94 0 9 0 C9.38063221 2.3260857 9.71269945 4.66055264 10 7 C9 8 9 8 7.1875 8.1328125 C6.465625 8.13023438 5.74375 8.12765625 5 8.125 C4.278125 8.12757812 3.55625 8.13015625 2.8125 8.1328125 C1 8 1 8 0 7 C-0.04092937 4.66702567 -0.04241723 2.33294775 0 0 Z " fill="#1A1A1A" transform="translate(137,111)"/>
<path d="M0 0 C0.33 0 0.66 0 1 0 C1.07429025 4.34159838 1.12866741 8.6828577 1.16479492 13.02490234 C1.17985923 14.50120491 1.20031482 15.97746288 1.22631836 17.45361328 C1.26280739 19.57856258 1.27974933 21.70291901 1.29296875 23.828125 C1.3086792 25.1059082 1.32438965 26.38369141 1.34057617 27.70019531 C0.9827054 31.1675655 0.37101156 32.51686448 -2 35 C-2.23209701 23.13726393 -1.81242503 11.73221561 0 0 Z " fill="#828282" transform="translate(146,44)"/>
<path d="M0 0 C3.875 1.875 3.875 1.875 5 3 C5.02891023 4.42317174 4.98667134 5.84791894 4.9140625 7.26953125 C4.87079834 8.15358643 4.82753418 9.0376416 4.78295898 9.94848633 C4.73083252 10.89361084 4.67870605 11.83873535 4.625 12.8125 C4.57609619 13.76342529 4.52719238 14.71435059 4.47680664 15.6940918 C4.11605404 22.47566355 3.65779301 29.24012714 3 36 C2.67 36 2.34 36 2 36 C1.67 31.71 1.34 27.42 1 23 C0.67 23 0.34 23 0 23 C0.33 16.73 0.66 10.46 1 4 C1.33 4 1.66 4 2 4 C2.33 5.98 2.66 7.96 3 10 C3.30495485 5.57335436 3.30495485 5.57335436 1.5 1.625 C1.005 1.08875 0.51 0.5525 0 0 Z " fill="#535353" transform="translate(147,1)"/>
<path d="M0 0 C0.33 1.32 0.66 2.64 1 4 C7.93 4 14.86 4 22 4 C21.67 4.99 21.34 5.98 21 7 C14.07 7 7.14 7 0 7 C0 4.69 0 2.38 0 0 Z " fill="#464646" transform="translate(15,102)"/>
<path d="M0 0 C5.28 0 10.56 0 16 0 C16 1.32 16 2.64 16 4 C10.72 4 5.44 4 0 4 C0 2.68 0 1.36 0 0 Z " fill="#1B1B1B" transform="translate(127,93)"/>
<path d="M0 0 C1.97909398 -0.02686553 3.95828971 -0.04633375 5.9375 -0.0625 C7.03964844 -0.07410156 8.14179688 -0.08570312 9.27734375 -0.09765625 C12 0 12 0 13 1 C13.07226502 2.85287502 13.0838122 4.70833878 13.0625 6.5625 C13.05347656 7.57441406 13.04445312 8.58632812 13.03515625 9.62890625 C13.02355469 10.41136719 13.01195312 11.19382812 13 12 C12.01 12 11.02 12 10 12 C10 11.34 10 10.68 10 10 C7.03 10 4.06 10 1 10 C1 9.67 1 9.34 1 9 C3.64 9 6.28 9 9 9 C8.67 6.69 8.34 4.38 8 2 C5.36 1.67 2.72 1.34 0 1 C0 0.67 0 0.34 0 0 Z " fill="#B1B1B1" transform="translate(133,82)"/>
<path d="M0 0 C2.97 0 5.94 0 9 0 C9.04254356 1.99954746 9.04080783 4.00041636 9 6 C8 7 8 7 6.15234375 7.09765625 C4.1015625 7.06510417 2.05078125 7.03255208 0 7 C0 4.69 0 2.38 0 0 Z " fill="#191919" transform="translate(39,102)"/>
<path d="M0 0 C2.97 0 5.94 0 9 0 C9.04254356 1.99954746 9.04080783 4.00041636 9 6 C8 7 8 7 6.15234375 7.09765625 C4.1015625 7.06510417 2.05078125 7.03255208 0 7 C0 4.69 0 2.38 0 0 Z " fill="#181818" transform="translate(81,102)"/>
<path d="M0 0 C2.97 0 5.94 0 9 0 C9 2.31 9 4.62 9 7 C2.84765625 7.09765625 2.84765625 7.09765625 1 7 C0 6 0 6 -0.0625 2.9375 C-0.041875 1.968125 -0.02125 0.99875 0 0 Z " fill="#191919" transform="translate(70,102)"/>
<path d="M0 0 C2.97 0 5.94 0 9 0 C9.04254356 1.99954746 9.04080783 4.00041636 9 6 C8 7 8 7 6.15234375 7.09765625 C4.1015625 7.06510417 2.05078125 7.03255208 0 7 C0 4.69 0 2.38 0 0 Z " fill="#191919" transform="translate(60,102)"/>
<path d="M0 0 C2.97 0 5.94 0 9 0 C9 2.31 9 4.62 9 7 C2.84765625 7.09765625 2.84765625 7.09765625 1 7 C0 6 0 6 -0.0625 2.9375 C-0.041875 1.968125 -0.02125 0.99875 0 0 Z " fill="#191919" transform="translate(49,102)"/>
<path d="M0 0 C2.97 0 5.94 0 9 0 C9 2.31 9 4.62 9 7 C2.84765625 7.09765625 2.84765625 7.09765625 1 7 C0 6 0 6 -0.0625 2.9375 C-0.041875 1.968125 -0.02125 0.99875 0 0 Z " fill="#464646" transform="translate(96,93)"/>
<path d="M0 0 C2.97 0 5.94 0 9 0 C9.04254356 1.99954746 9.04080783 4.00041636 9 6 C8 7 8 7 6.15234375 7.09765625 C4.1015625 7.06510417 2.05078125 7.03255208 0 7 C0 4.69 0 2.38 0 0 Z " fill="#464646" transform="translate(55,93)"/>
<path d="M0 0 C2.97 0 5.94 0 9 0 C9 2.31 9 4.62 9 7 C2.84765625 7.09765625 2.84765625 7.09765625 1 7 C0 6 0 6 -0.0625 2.9375 C-0.041875 1.968125 -0.02125 0.99875 0 0 Z " fill="#1B1B1B" transform="translate(106,93)"/>
<path d="M0 0 C2.97 0 5.94 0 9 0 C9.04254356 1.99954746 9.04080783 4.00041636 9 6 C8 7 8 7 6.15234375 7.09765625 C4.1015625 7.06510417 2.05078125 7.03255208 0 7 C0 4.69 0 2.38 0 0 Z " fill="#1A1A1A" transform="translate(86,93)"/>
<path d="M0 0 C2.97 0 5.94 0 9 0 C9.04254356 1.99954746 9.04080783 4.00041636 9 6 C8 7 8 7 6.15234375 7.09765625 C4.1015625 7.06510417 2.05078125 7.03255208 0 7 C0 4.69 0 2.38 0 0 Z " fill="#1A1A1A" transform="translate(45,93)"/>
<path d="M0 0 C2.97 0 5.94 0 9 0 C9 2.31 9 4.62 9 7 C2.84765625 7.09765625 2.84765625 7.09765625 1 7 C0 6 0 6 -0.0625 2.9375 C-0.041875 1.968125 -0.02125 0.99875 0 0 Z " fill="#1B1B1B" transform="translate(65,93)"/>
<path d="M0 0 C0.66 0.33 1.32 0.66 2 1 C1.67 9.25 1.34 17.5 1 26 C0.67 26 0.34 26 0 26 C-0.13277344 24.99839844 -0.26554688 23.99679688 -0.40234375 22.96484375 C-0.58071127 21.62239346 -0.7590977 20.27994567 -0.9375 18.9375 C-1.02451172 18.28072266 -1.11152344 17.62394531 -1.20117188 16.94726562 C-1.33168945 15.9659668 -1.33168945 15.9659668 -1.46484375 14.96484375 C-1.55048584 14.30798584 -1.63612793 13.65112793 -1.72436523 12.97436523 C-1.99593197 11.02913924 -2.32570047 9.09232585 -2.65625 7.15625 C-3 4 -3 4 -1.5625 1.5625 C-1.046875 1.046875 -0.53125 0.53125 0 0 Z " fill="#6B6B6B" transform="translate(11,1)"/>
<path d="M0 0 C2.64 0 5.28 0 8 0 C8 2.31 8 4.62 8 7 C5.36 7 2.72 7 0 7 C-1.125 2.25 -1.125 2.25 0 0 Z " fill="#1A1A1A" transform="translate(35,93)"/>
<path d="M0 0 C2.64 0 5.28 0 8 0 C8.38133299 1.9914056 8.71325582 3.99279077 9 6 C8 7 8 7 6.15234375 7.09765625 C4.1015625 7.06510417 2.05078125 7.03255208 0 7 C0 4.69 0 2.38 0 0 Z " fill="#1A1A1A" transform="translate(117,93)"/>
<path d="M0 0 C0.33 0 0.66 0 1 0 C1.04254356 1.99954746 1.04080783 4.00041636 1 6 C0 7 0 7 -3.59765625 7.09765625 C-5.08596867 7.0909822 -6.57426432 7.07902183 -8.0625 7.0625 C-8.82111328 7.05798828 -9.57972656 7.05347656 -10.36132812 7.04882812 C-12.24091871 7.0370068 -14.12046899 7.01907078 -16 7 C-16 5.02 -16 3.04 -16 1 C-15.67 1.99 -15.34 2.98 -15 4 C-10.05 4 -5.1 4 0 4 C0 2.68 0 1.36 0 0 Z " fill="#484848" transform="translate(32,93)"/>
<path d="M0 0 C6.27 0 12.54 0 19 0 C19 0.33 19 0.66 19 1 C16.36 1.33 13.72 1.66 11 2 C11 3.65 11 5.3 11 7 C13.64 7.33 16.28 7.66 19 8 C19 8.33 19 8.66 19 9 C16.69 9.33 14.38 9.66 12 10 C12 10.33 12 10.66 12 11 C4.49230769 11.36923077 4.49230769 11.36923077 2 9.5 C1.67 9.005 1.34 8.51 1 8 C3.64 8 6.28 8 9 8 C8.67 6.02 8.34 4.04 8 2 C5.36 1.67 2.72 1.34 0 1 C0 0.67 0 0.34 0 0 Z " fill="#929292" transform="translate(113,82)"/>
<path d="M0 0 C1.5 1.375 1.5 1.375 3 3 C3 3.66 3 4.32 3 5 C3.66 5 4.32 5 5 5 C5 6.98 5 8.96 5 11 C3.68 11.33 2.36 11.66 1 12 C0.67 10.68 0.34 9.36 0 8 C-2.97 8 -5.94 8 -9 8 C-9 7.67 -9 7.34 -9 7 C-6.36 7 -3.72 7 -1 7 C-0.67 4.69 -0.34 2.38 0 0 Z " fill="#969696" transform="translate(146,103)"/>
<path d="M0 0 C7.09727428 -0.10808032 13.96094956 0.06145994 21 1 C21 1.33 21 1.66 21 2 C18.03 2 15.06 2 12 2 C12.33 4.31 12.66 6.62 13 9 C12.01 8.67 11.02 8.34 10 8 C10.33 6.02 10.66 4.04 11 2 C8.03 2 5.06 2 2 2 C2 3.98 2 5.96 2 8 C1.34 8 0.68 8 0 8 C0 5.36 0 2.72 0 0 Z " fill="#999999" transform="translate(79,100)"/>
<path d="M0 0 C2.97 0 5.94 0 9 0 C9 1.98 9 3.96 9 6 C6.03 6 3.06 6 0 6 C0 4.02 0 2.04 0 0 Z " fill="#2E2E2E" transform="translate(75,93)"/>
<path d="M0 0 C2.97 0 5.94 0 9 0 C9 1.98 9 3.96 9 6 C6.03 6 3.06 6 0 6 C0 4.02 0 2.04 0 0 Z " fill="#2C2C2C" transform="translate(103,84)"/>
<path d="M0 0 C2.97 0 5.94 0 9 0 C9 1.98 9 3.96 9 6 C6.03 6 3.06 6 0 6 C0 4.02 0 2.04 0 0 Z " fill="#2C2C2C" transform="translate(93,84)"/>
<path d="M0 0 C2.97 0 5.94 0 9 0 C9 1.98 9 3.96 9 6 C6.03 6 3.06 6 0 6 C0 4.02 0 2.04 0 0 Z " fill="#2C2C2C" transform="translate(83,84)"/>
<path d="M0 0 C2.97 0 5.94 0 9 0 C9 1.98 9 3.96 9 6 C6.03 6 3.06 6 0 6 C0 4.02 0 2.04 0 0 Z " fill="#2D2D2D" transform="translate(73,84)"/>
<path d="M0 0 C2.97 0 5.94 0 9 0 C9 1.98 9 3.96 9 6 C6.03 6 3.06 6 0 6 C0 4.02 0 2.04 0 0 Z " fill="#2C2C2C" transform="translate(63,84)"/>
<path d="M0 0 C2.97 0 5.94 0 9 0 C9 1.98 9 3.96 9 6 C6.03 6 3.06 6 0 6 C0 4.02 0 2.04 0 0 Z " fill="#2C2C2C" transform="translate(53,84)"/>
<path d="M0 0 C2.97 0 5.94 0 9 0 C9 1.98 9 3.96 9 6 C6.03 6 3.06 6 0 6 C0 4.02 0 2.04 0 0 Z " fill="#2C2C2C" transform="translate(43,84)"/>
<path d="M0 0 C8.91 0 17.82 0 27 0 C27 0.33 27 0.66 27 1 C25.72125 1.12375 24.4425 1.2475 23.125 1.375 C19.65209064 1.69042399 19.65209064 1.69042399 17 4 C17 3.34 17 2.68 17 2 C14.72858891 2.11402064 12.45785448 2.24158505 10.1875 2.375 C8.29064453 2.47941406 8.29064453 2.47941406 6.35546875 2.5859375 C2.87244766 2.76102939 2.87244766 2.76102939 0 5 C0 3.35 0 1.7 0 0 Z " fill="#919191" transform="translate(15,82)"/>
<path d="M0 0 C2.97 0 5.94 0 9 0 C9 1.98 9 3.96 9 6 C2.84765625 6.09765625 2.84765625 6.09765625 1 6 C0 5 0 5 -0.0625 2.4375 C-0.041875 1.633125 -0.02125 0.82875 0 0 Z " fill="#2C2C2C" transform="translate(133,84)"/>
<path d="M0 0 C2.97 0 5.94 0 9 0 C9 1.98 9 3.96 9 6 C2.84765625 6.09765625 2.84765625 6.09765625 1 6 C0 5 0 5 -0.0625 2.4375 C-0.041875 1.633125 -0.02125 0.82875 0 0 Z " fill="#2B2B2B" transform="translate(123,84)"/>
<path d="M0 0 C2.97 0 5.94 0 9 0 C9 1.98 9 3.96 9 6 C2.84765625 6.09765625 2.84765625 6.09765625 1 6 C0 5 0 5 -0.0625 2.4375 C-0.041875 1.633125 -0.02125 0.82875 0 0 Z " fill="#2B2B2B" transform="translate(113,84)"/>
<path d="M0 0 C4.29 0 8.58 0 13 0 C13 1.32 13 2.64 13 4 C8.71 4 4.42 4 0 4 C0 2.68 0 1.36 0 0 Z " fill="#1B1B1B" transform="translate(18,84)"/>
<path d="M0 0 C0.33 0 0.66 0 1 0 C1.33 2.97 1.66 5.94 2 9 C15.86 9.495 15.86 9.495 30 10 C30 10.33 30 10.66 30 11 C20.1 11.33 10.2 11.66 0 12 C-0.82783144 7.03301135 -1.00001003 4.66671349 0 0 Z " fill="#6F6F6F" transform="translate(3,146)"/>
<path d="M0 0 C0.33 0 0.66 0 1 0 C1.103125 1.11375 1.20625 2.2275 1.3125 3.375 C1.6528125 5.169375 1.6528125 5.169375 2 7 C2.99 7.66 3.98 8.32 5 9 C2.03 9 -0.94 9 -4 9 C-3.67 11.31 -3.34 13.62 -3 16 C-3.99 15.67 -4.98 15.34 -6 15 C-5.67 13.02 -5.34 11.04 -5 9 C-7.97 9 -10.94 9 -14 9 C-14 8.67 -14 8.34 -14 8 C-7.565 7.505 -7.565 7.505 -1 7 C-1 5.02 -1 3.04 -1 1 C-0.67 0.67 -0.34 0.34 0 0 Z " fill="#949494" transform="translate(116,93)"/>
<path d="M0 0 C5.94 0.33 11.88 0.66 18 1 C18 1.66 18 2.32 18 3 C11.73 3 5.46 3 -1 3 C-0.67 2.01 -0.34 1.02 0 0 Z " fill="#1D1D1D" transform="translate(125,102)"/>
<path d="M0 0 C0 0.33 0 0.66 0 1 C-2.64 1 -5.28 1 -8 1 C-8 2.98 -8 4.96 -8 7 C-5.36 7 -2.72 7 0 7 C0 7.33 0 7.66 0 8 C-5.61 8 -11.22 8 -17 8 C-17 7.67 -17 7.34 -17 7 C-14.36 7 -11.72 7 -9 7 C-9 5.02 -9 3.04 -9 1 C-11.64 1 -14.28 1 -17 1 C-17 0.67 -17 0.34 -17 0 C-11.06975197 -0.97040422 -5.93609666 -0.89316269 0 0 Z " fill="#808080" transform="translate(81,83)"/>
<path d="M0 0 C0.33 0 0.66 0 1 0 C2.33257403 11.52164009 2.33257403 11.52164009 1 17 C0.01 17.33 -0.98 17.66 -2 18 C-1.48758893 11.97099313 -0.930215 5.97995357 0 0 Z " fill="#7D7D7D" transform="translate(6,127)"/>
<path d="M0 0 C6.27 0 12.54 0 19 0 C18.67 0.66 18.34 1.32 18 2 C15.36 2 12.72 2 10 2 C10.33 4.31 10.66 6.62 11 9 C10.01 8.67 9.02 8.34 8 8 C8 6.02 8 4.04 8 2 C5.36 1.67 2.72 1.34 0 1 C0 0.67 0 0.34 0 0 Z " fill="#979797" transform="translate(73,82)"/>
<path d="M0 0 C2.64 0 5.28 0 8 0 C8 1.65 8 3.3 8 5 C5.69 5 3.38 5 1 5 C0.67 3.35 0.34 1.7 0 0 Z " fill="#191919" transform="translate(127,111)"/>
<path d="M0 0 C2.64 0 5.28 0 8 0 C7.34 1.65 6.68 3.3 6 5 C4.02 5 2.04 5 0 5 C0 3.35 0 1.7 0 0 Z " fill="#1A1A1A" transform="translate(14,111)"/>
<path d="M0 0 C1.52519276 0.08937803 3.04681929 0.24537146 4.5625 0.4375 C5.38878906 0.53933594 6.21507813 0.64117187 7.06640625 0.74609375 C7.70449219 0.82988281 8.34257813 0.91367188 9 1 C9 1.33 9 1.66 9 2 C6.36 2 3.72 2 1 2 C1 3.98 1 5.96 1 8 C3.97 8 6.94 8 10 8 C10 8.33 10 8.66 10 9 C4.06 9 -1.88 9 -8 9 C-8 8.67 -8 8.34 -8 8 C-5.36 8 -2.72 8 0 8 C-0.2784375 6.2984375 -0.2784375 6.2984375 -0.5625 4.5625 C-0.706875 3.386875 -0.85125 2.21125 -1 1 C-0.67 0.67 -0.34 0.34 0 0 Z " fill="#838383" transform="translate(92,82)"/>
<path d="M0 0 C0.33 0 0.66 0 1 0 C1.04254356 1.99954746 1.04080783 4.00041636 1 6 C0 7 0 7 -2.13305664 7.02172852 C-3.04949951 6.97459717 -3.96594238 6.92746582 -4.91015625 6.87890625 C-5.89951172 6.83056641 -6.88886719 6.78222656 -7.90820312 6.73242188 C-9.46958008 6.64831055 -9.46958008 6.64831055 -11.0625 6.5625 C-12.62967773 6.48418945 -12.62967773 6.48418945 -14.22851562 6.40429688 C-16.81928236 6.27416704 -19.40970666 6.13918842 -22 6 C-22 5.67 -22 5.34 -22 5 C-19.04160645 4.97310551 -16.08345573 4.95321259 -13.125 4.9375 C-11.86236328 4.92493164 -11.86236328 4.92493164 -10.57421875 4.91210938 C-9.76855469 4.90888672 -8.96289062 4.90566406 -8.1328125 4.90234375 C-7.01737061 4.89448853 -7.01737061 4.89448853 -5.87939453 4.88647461 C-4 5 -4 5 -2 6 C-1.34 4.02 -0.68 2.04 0 0 Z " fill="#6D6D6D" transform="translate(157,151)"/>
<path d="M0 0 C0.66 0.99 1.32 1.98 2 3 C5.11610554 3.58592634 5.11610554 3.58592634 8.625 3.6875 C9.81351563 3.75324219 11.00203125 3.81898437 12.2265625 3.88671875 C13.14179688 3.92410156 14.05703125 3.96148437 15 4 C15 4.33 15 4.66 15 5 C10.38 5 5.76 5 1 5 C0.67 5.99 0.34 6.98 0 8 C-0.66 7.67 -1.32 7.34 -2 7 C-2.125 4.625 -2.125 4.625 -2 2 C-1.34 1.34 -0.68 0.68 0 0 Z " fill="#C1C1C1" transform="translate(16,87)"/>
<path d="M0 0 C0.33 0.66 0.66 1.32 1 2 C3.64 2 6.28 2 9 2 C9.33 1.34 9.66 0.68 10 0 C9.67 1.65 9.34 3.3 9 5 C6.36 5 3.72 5 1 5 C0.67 3.35 0.34 1.7 0 0 Z " fill="#4D4D4D" transform="translate(137,114)"/>
<path d="M0 0 C0.33 0 0.66 0 1 0 C1 2.64 1 5.28 1 8 C-1.97 8 -4.94 8 -8 8 C-8 7.01 -8 6.02 -8 5 C-5.36 5 -2.72 5 0 5 C0 3.35 0 1.7 0 0 Z " fill="#4C4C4C" transform="translate(124,111)"/>
<path d="M0 0 C2.64 0 5.28 0 8 0 C8 1.32 8 2.64 8 4 C5.36 4 2.72 4 0 4 C0 2.68 0 1.36 0 0 Z " fill="#1A1A1A" transform="translate(25,112)"/>
<path d="M0 0 C2.64 0 5.28 0 8 0 C8 1.32 8 2.64 8 4 C5.36 4 2.72 4 0 4 C0 2.68 0 1.36 0 0 Z " fill="#1A1A1A" transform="translate(113,102)"/>
<path d="M0 0 C2.64 0 5.28 0 8 0 C8 1.32 8 2.64 8 4 C5.36 4 2.72 4 0 4 C0 2.68 0 1.36 0 0 Z " fill="#181818" transform="translate(102,102)"/>
<path d="M0 0 C2.64 0 5.28 0 8 0 C8 1.32 8 2.64 8 4 C5.36 4 2.72 4 0 4 C0 2.68 0 1.36 0 0 Z " fill="#1A1A1A" transform="translate(92,102)"/>
<path d="M0 0 C2.31 0 4.62 0 7 0 C7 1.32 7 2.64 7 4 C4.36 4 1.72 4 -1 4 C-0.67 2.68 -0.34 1.36 0 0 Z " fill="#1B1B1B" transform="translate(37,112)"/>
<path d="M0 0 C0.33 1.32 0.66 2.64 1 4 C3.64 4 6.28 4 9 4 C9 4.99 9 5.98 9 7 C2.84765625 7.09765625 2.84765625 7.09765625 1 7 C0 6 0 6 -0.0625 2.9375 C-0.041875 1.968125 -0.02125 0.99875 0 0 Z " fill="#464646" transform="translate(112,102)"/>
<path d="M0 0 C0.33 1.32 0.66 2.64 1 4 C3.64 4 6.28 4 9 4 C9 4.99 9 5.98 9 7 C2.84765625 7.09765625 2.84765625 7.09765625 1 7 C0 6 0 6 -0.0625 2.9375 C-0.041875 1.968125 -0.02125 0.99875 0 0 Z " fill="#464646" transform="translate(91,102)"/>
<path d="M0 0 C0.33 0 0.66 0 1 0 C1.04254356 1.99954746 1.04080783 4.00041636 1 6 C0 7 0 7 -1.84765625 7.09765625 C-3.8984375 7.06510417 -5.94921875 7.03255208 -8 7 C-8 6.01 -8 5.02 -8 4 C-5.36 4 -2.72 4 0 4 C0 2.68 0 1.36 0 0 Z " fill="#4C4C4C" transform="translate(89,102)"/>
<path d="M0 0 C0.33 1.32 0.66 2.64 1 4 C3.64 4 6.28 4 9 4 C9 4.99 9 5.98 9 7 C2.84765625 7.09765625 2.84765625 7.09765625 1 7 C0 6 0 6 -0.0625 2.9375 C-0.041875 1.968125 -0.02125 0.99875 0 0 Z " fill="#494949" transform="translate(70,102)"/>
<path d="M0 0 C0.33 0 0.66 0 1 0 C1.04254356 1.99954746 1.04080783 4.00041636 1 6 C0 7 0 7 -1.84765625 7.09765625 C-3.8984375 7.06510417 -5.94921875 7.03255208 -8 7 C-8 6.01 -8 5.02 -8 4 C-5.36 4 -2.72 4 0 4 C0 2.68 0 1.36 0 0 Z " fill="#484848" transform="translate(68,102)"/>
<path d="M0 0 C0.33 1.32 0.66 2.64 1 4 C3.64 4 6.28 4 9 4 C9 4.99 9 5.98 9 7 C2.84765625 7.09765625 2.84765625 7.09765625 1 7 C0 6 0 6 -0.0625 2.9375 C-0.041875 1.968125 -0.02125 0.99875 0 0 Z " fill="#484848" transform="translate(49,102)"/>
<path d="M0 0 C0.33 0 0.66 0 1 0 C1.04254356 1.99954746 1.04080783 4.00041636 1 6 C0 7 0 7 -1.84765625 7.09765625 C-3.8984375 7.06510417 -5.94921875 7.03255208 -8 7 C-8 6.01 -8 5.02 -8 4 C-5.36 4 -2.72 4 0 4 C0 2.68 0 1.36 0 0 Z " fill="#484848" transform="translate(47,102)"/>
<path d="M0 0 C0.33 1.32 0.66 2.64 1 4 C3.64 4 6.28 4 9 4 C9 4.99 9 5.98 9 7 C2.84765625 7.09765625 2.84765625 7.09765625 1 7 C0 6 0 6 -0.0625 2.9375 C-0.041875 1.968125 -0.02125 0.99875 0 0 Z " fill="#4A4A4A" transform="translate(106,93)"/>
<path d="M0 0 C0.33 0 0.66 0 1 0 C1.04254356 1.99954746 1.04080783 4.00041636 1 6 C0 7 0 7 -1.84765625 7.09765625 C-3.8984375 7.06510417 -5.94921875 7.03255208 -8 7 C-8 6.01 -8 5.02 -8 4 C-5.36 4 -2.72 4 0 4 C0 2.68 0 1.36 0 0 Z " fill="#4E4E4E" transform="translate(94,93)"/>
<path d="M0 0 C0.33 1.32 0.66 2.64 1 4 C3.64 4 6.28 4 9 4 C9 4.99 9 5.98 9 7 C2.84765625 7.09765625 2.84765625 7.09765625 1 7 C0 6 0 6 -0.0625 2.9375 C-0.041875 1.968125 -0.02125 0.99875 0 0 Z " fill="#4B4B4B" transform="translate(65,93)"/>
<path d="M0 0 C0.33 0 0.66 0 1 0 C1.04254356 1.99954746 1.04080783 4.00041636 1 6 C0 7 0 7 -1.84765625 7.09765625 C-3.8984375 7.06510417 -5.94921875 7.03255208 -8 7 C-8 6.01 -8 5.02 -8 4 C-5.36 4 -2.72 4 0 4 C0 2.68 0 1.36 0 0 Z " fill="#4D4D4D" transform="translate(53,93)"/>
<path d="M0 0 C5.94 0 11.88 0 18 0 C18 0.33 18 0.66 18 1 C15.36 1.33 12.72 1.66 10 2 C10 4.31 10 6.62 10 9 C9.01 8.67 8.02 8.34 7 8 C7 6.02 7 4.04 7 2 C4.69 1.67 2.38 1.34 0 1 C0 0.67 0 0.34 0 0 Z " fill="#9E9E9E" transform="translate(54,82)"/>
<path d="M0 0 C1.485 0.99 1.485 0.99 3 2 C3 2.99 3 3.98 3 5 C8.28 5 13.56 5 19 5 C19 5.33 19 5.66 19 6 C16.20880221 6.22114415 13.4178788 6.42743301 10.625 6.625 C9.8309375 6.68945312 9.036875 6.75390625 8.21875 6.8203125 C6.14971776 6.96058587 4.07374464 6.98758237 2 7 C0 5 0 5 -0.125 2.375 C-0.08375 1.59125 -0.0425 0.8075 0 0 Z " fill="#C6C6C6" transform="translate(13,95)"/>
<path d="M0 0 C0.5625 1.9375 0.5625 1.9375 1 4 C0 5 0 5 -1.84765625 5.09765625 C-3.8984375 5.06510417 -5.94921875 5.03255208 -8 5 C-8 4.01 -8 3.02 -8 2 C-5.36 2 -2.72 2 0 2 C0 1.34 0 0.68 0 0 Z " fill="#4C4C4C" transform="translate(125,95)"/>
<path d="M0 0 C0.33 0.66 0.66 1.32 1 2 C3.64 2 6.28 2 9 2 C9 2.99 9 3.98 9 5 C6.36 5 3.72 5 1 5 C0.67 3.35 0.34 1.7 0 0 Z " fill="#494949" transform="translate(34,95)"/>
<path d="M0 0 C2.31 0 4.62 0 7 0 C7 1.32 7 2.64 7 4 C4.69 4 2.38 4 0 4 C0 2.68 0 1.36 0 0 Z " fill="#191919" transform="translate(97,93)"/>
<path d="M0 0 C2.31 0 4.62 0 7 0 C7 1.32 7 2.64 7 4 C4.69 4 2.38 4 0 4 C0 2.68 0 1.36 0 0 Z " fill="#191919" transform="translate(56,93)"/>
<path d="M0 0 C2.31 0 4.62 0 7 0 C7 1.32 7 2.64 7 4 C4.69 4 2.38 4 0 4 C0 2.68 0 1.36 0 0 Z " fill="#181818" transform="translate(34,84)"/>
<path d="M0 0 C0 0.33 0 0.66 0 1 C-2.64 1 -5.28 1 -8 1 C-7.67 2.98 -7.34 4.96 -7 7 C-7.66 7 -8.32 7 -9 7 C-9 5.02 -9 3.04 -9 1 C-11.64 1 -14.28 1 -17 1 C-17 0.67 -17 0.34 -17 0 C-11.1314592 -1.14819277 -5.9114744 -0.77313045 0 0 Z " fill="#858585" transform="translate(121,83)"/>
<path d="M0 0 C5.28 0 10.56 0 16 0 C16 0.33 16 0.66 16 1 C14.77023438 1.05607422 14.77023438 1.05607422 13.515625 1.11328125 C12.43796875 1.17902344 11.3603125 1.24476562 10.25 1.3125 C9.18265625 1.37050781 8.1153125 1.42851563 7.015625 1.48828125 C3.8178932 2.03090154 2.37401309 2.85071145 0 5 C0 3.35 0 1.7 0 0 Z " fill="#AFAFAF" transform="translate(15,82)"/>
<path d="M0 0 C0 0.33 0 0.66 0 1 C-2.64 1 -5.28 1 -8 1 C-7.67 2.98 -7.34 4.96 -7 7 C-7.66 7 -8.32 7 -9 7 C-9 5.02 -9 3.04 -9 1 C-11.64 1 -14.28 1 -17 1 C-17 0.67 -17 0.34 -17 0 C-11.06975197 -0.97040422 -5.93609666 -0.89316269 0 0 Z " fill="#848484" transform="translate(141,83)"/>
<path d="M0 0 C0 0.33 0 0.66 0 1 C-2.64 1 -5.28 1 -8 1 C-8 2.98 -8 4.96 -8 7 C-8.66 6.67 -9.32 6.34 -10 6 C-9.67 4.35 -9.34 2.7 -9 1 C-11.64 1 -14.28 1 -17 1 C-17 0.67 -17 0.34 -17 0 C-11.06975197 -0.97040422 -5.93609666 -0.89316269 0 0 Z " fill="#828282" transform="translate(51,83)"/>
<path d="M0 0 C0.66 0 1.32 0 2 0 C2.125 3.375 2.125 3.375 2 7 C1.34 7.66 0.68 8.32 0 9 C-1.125 6.75 -1.125 6.75 -2 4 C-1.125 1.6875 -1.125 1.6875 0 0 Z " fill="#AEAEAE" transform="translate(13,103)"/>
<path d="M0 0 C2.1519437 3.22791555 2.20086443 4.28400809 2 8 C1.67 7.34 1.34 6.68 1 6 C0.01 6.33 -0.98 6.66 -2 7 C-2 5.02 -2 3.04 -2 1 C-1.34 0.67 -0.68 0.34 0 0 Z " fill="#919191" transform="translate(11,108)"/>
<path d="M0 0 C1.5 1.0625 1.5 1.0625 3 3 C3.1875 6.6875 3.1875 6.6875 3 10 C1.35 9.67 -0.3 9.34 -2 9 C-1.34 8.67 -0.68 8.34 0 8 C0 5.36 0 2.72 0 0 Z " fill="#616161" transform="translate(143,73)"/>
<path d="M0 0 C0.66 1.32 1.32 2.64 2 4 C1.01 4.99 0.02 5.98 -1 7 C-0.67 4.69 -0.34 2.38 0 0 Z M3 2 C3.33 2 3.66 2 4 2 C4 3.65 4 5.3 4 7 C3.34 5.68 2.68 4.36 2 3 C2.33 2.67 2.66 2.34 3 2 Z " fill="#757575" transform="translate(14,83)"/>
<path d="" fill="#FF0000" transform="translate(0,0)"/>
<path d="" fill="#FF0000" transform="translate(0,0)"/>
</svg>
